<svg xmlns="http://www.w3.org/2000/svg" viewBox="0 0 89.27 72.39"><title>002Asset 3black</title><g id="51cfd18e-cf04-496f-a523-29da0d1aacfc" data-name="Layer 2"><g id="b512aa02-9f86-4dd7-abd4-b3e218a75948" data-name="Layer 1"><path d="M6.29,63h1.2V57.74H6.29Zm3-5.28V63h1.19V60.81h2V63h1.19V57.74H12.43v2h-2v-2ZM16.43,63h1.19V58.74h1.45v-1H15v1h1.42Zm7.15-3.2H21.64v-1.1H23.7v-1H20.45V63h3.36V62H21.64V60.79h1.94ZM25.37,63h1.18V61.13a2.9,2.9,0,0,0,2.13-.53,1.63,1.63,0,0,0,.48-1.25,1.51,1.51,0,0,0-.56-1.22A2.48,2.48,0,0,0,27,57.7a10.17,10.17,0,0,0-1.62.11Zm1.18-4.37a2.46,2.46,0,0,1,.49,0c.6,0,.94.29.94.78s-.39.85-1,.85a2.1,2.1,0,0,1-.4,0Zm4.12-.91V63h1.2V60.81h2V63H35V57.74H33.83v2h-2v-2ZM40,59.82H38v-1.1h2.06v-1H36.82V63h3.36V62H38V60.79H40ZM42.76,63H44V58.74H45.4v-1H41.34v1h1.42Zm3.73-1.66h2.06v-.79H46.49ZM54.59,63h1.16l-.28-5.28H53.9l-.55,1.76c-.18.58-.36,1.28-.5,1.89h0c-.12-.62-.28-1.27-.45-1.88l-.52-1.77H50.26L49.92,63H51l.1-2c0-.66.06-1.48.09-2.19h0c.14.69.31,1.44.48,2.07l.56,2h.94l.64-2.06c.2-.62.42-1.37.59-2.05h0c0,.77,0,1.54,0,2.17Zm5.57-1.35.4,1.35h1.3l-1.65-5.28H58.64L57,63h1.23l.37-1.35Zm-1.34-.9.31-1.12c.09-.3.16-.7.24-1h0c.08.32.17.71.27,1L60,60.77Zm4.49-3V63H64.5v-4.3h2v-1Zm7.31,3.93L71,63h1.3l-1.65-5.28H69.1L67.5,63h1.23l.37-1.35Zm-1.34-.9.31-1.12c.08-.3.16-.7.24-1h0c.08.32.17.71.26,1l.33,1.12Zm4.56-1.85A3,3,0,0,1,75,58.61c.51,0,.8.24.8.58s-.41.67-1,.67h-.5v.88h.5c.5,0,1.12.12,1.12.7s-.37.7-1,.7a3.16,3.16,0,0,1-1.27-.32l-.25.92a3.32,3.32,0,0,0,1.58.37c1,0,2.17-.41,2.17-1.59A1.32,1.32,0,0,0,76,60.26h0A1.27,1.27,0,0,0,77.05,59c0-.77-.68-1.35-1.84-1.35a3.23,3.23,0,0,0-1.64.42Zm4.92-1.18V63h1.36l1.07-1.9a15.53,15.53,0,0,0,.9-1.88h0A19.39,19.39,0,0,0,82,61.46V63h1.1V57.74H81.9l-1.13,2.08c-.32.56-.67,1.26-1,1.88h0c0-.71.06-1.54.06-2.39V57.74Zm6.16,0V63h1.19V60.81h2V63h1.19V57.74H88.08v2h-2v-2Zm-79,8.95,1.63,5.57H9.16l.55-2a15.21,15.21,0,0,0,.36-1.73h0a17,17,0,0,0,.36,1.74l.53,2H12.6l1.71-5.57h-1.7l-.47,2.21c-.14.64-.25,1.28-.33,1.9h0c-.11-.63-.25-1.25-.41-1.89l-.56-2.22H9.45L8.86,69c-.13.55-.3,1.18-.4,1.81h0c-.1-.63-.21-1.25-.31-1.82l-.46-2.29Zm10.6,0,1.63,5.57h1.63l.56-2a15.4,15.4,0,0,0,.35-1.73h0a16.79,16.79,0,0,0,.37,1.74l.52,2H23.2l1.71-5.57h-1.7l-.47,2.21c-.13.64-.25,1.28-.33,1.9h0c-.1-.63-.25-1.25-.41-1.89l-.56-2.22H20.05L19.46,69c-.12.55-.3,1.18-.4,1.81h0c-.09-.63-.21-1.25-.31-1.82l-.46-2.29Zm10.6,0,1.63,5.57h1.63l.56-2a13.44,13.44,0,0,0,.35-1.73h0a16.79,16.79,0,0,0,.37,1.74l.52,2H33.8l1.71-5.57h-1.7l-.46,2.21c-.14.64-.25,1.28-.33,1.9h0c-.1-.63-.25-1.25-.41-1.89L32,66.69H30.66l-.6,2.3c-.12.55-.29,1.18-.4,1.81h0c-.09-.63-.2-1.25-.31-1.82l-.45-2.29Zm11.29,5.7a1.06,1.06,0,1,0-1-1,1,1,0,0,0,1,1M46.85,69a2.17,2.17,0,0,0-2.44-2.42,4.56,4.56,0,0,0-2.17.51l.32,1.11a3.13,3.13,0,0,1,1.54-.42c.86,0,1,.42,1,.73v.07c-2,0-3.28.68-3.28,2.13a1.72,1.72,0,0,0,1.81,1.71,2,2,0,0,0,1.59-.68h0l.1.55h1.56a7,7,0,0,1-.09-1.34Zm-1.68,1.27a1.36,1.36,0,0,1,0,.29,1,1,0,0,1-.9.64.63.63,0,0,1-.69-.66c0-.66.71-.88,1.62-.88Zm8.77.6A2.5,2.5,0,0,1,53,71a1.46,1.46,0,0,1-1.53-1.56,1.44,1.44,0,0,1,1.49-1.56,2.37,2.37,0,0,1,1,.17l.28-1.29a4,4,0,0,0-1.33-.21,2.91,2.91,0,0,0-3.19,3,2.72,2.72,0,0,0,3,2.85,4.14,4.14,0,0,0,1.55-.26Zm6.75,0a2.5,2.5,0,0,1-1,.18,1.46,1.46,0,0,1-1.53-1.56,1.44,1.44,0,0,1,1.5-1.56,2.35,2.35,0,0,1,1,.17l.28-1.29a4,4,0,0,0-1.32-.21,2.9,2.9,0,0,0-3.19,3,2.71,2.71,0,0,0,3,2.85,4.14,4.14,0,0,0,1.55-.26ZM68.27,69a2.16,2.16,0,0,0-2.43-2.42,4.53,4.53,0,0,0-2.17.51L64,68.17a3.1,3.1,0,0,1,1.54-.42c.85,0,1,.42,1,.73v.07c-2,0-3.27.68-3.27,2.13a1.71,1.71,0,0,0,1.8,1.71,2,2,0,0,0,1.6-.68h0l.1.55h1.57a6.9,6.9,0,0,1-.1-1.34ZM66.6,70.24a1.36,1.36,0,0,1,0,.29,1,1,0,0,1-.91.64.62.62,0,0,1-.68-.66c0-.66.71-.88,1.62-.88Zm5.67,2.15a1.06,1.06,0,1,0-1-1,1,1,0,0,0,1,1m9.07-5.7H79.61V70a.82.82,0,0,1-.07.37.9.9,0,0,1-.86.61c-.62,0-.88-.49-.88-1.3v-3H76.07V70c0,1.72.82,2.43,2,2.43a2,2,0,0,0,1.74-.91h0l.08.78h1.51c0-.46,0-1.06,0-1.79ZM89.11,69a2.17,2.17,0,0,0-2.44-2.42,4.56,4.56,0,0,0-2.17.51l.32,1.11a3.13,3.13,0,0,1,1.54-.42c.86,0,1,.42,1,.73v.07c-2,0-3.27.68-3.27,2.13a1.71,1.71,0,0,0,1.8,1.71,2,2,0,0,0,1.59-.68h0l.1.55H89.2a7,7,0,0,1-.09-1.34Zm-1.68,1.27a1.36,1.36,0,0,1,0,.29,1,1,0,0,1-.9.64.62.62,0,0,1-.68-.66c0-.66.7-.88,1.61-.88Z" style="fill:#231f20"/><path d="M39,31a2.07,2.07,0,1,0,2.06,2.06A2.07,2.07,0,0,0,39,31" style="fill:#ed1c24"/><path d="M82.68,31a2.07,2.07,0,1,0,2.06,2.06A2.06,2.06,0,0,0,82.68,31" style="fill:#ed1c24"/><path d="M59.56,39.37H57.73c-4.17,0-8.07-2.81-8.07-7.9,0-4.53,3.19-7.89,8.07-7.89h1.85v-1H57.73c-6.45,0-9.18,4.81-9.18,8.86,0,5.47,4.07,8.86,9.18,8.86h1.83Z" style="fill:#231f20"/><path d="M72.48,39.37H70.66c-4.18,0-8.08-2.81-8.08-7.9,0-4.53,3.19-7.89,8.08-7.89H72.5v-1H70.66c-6.46,0-9.19,4.81-9.19,8.86,0,5.47,4.07,8.86,9.19,8.86h1.82Z" style="fill:#231f20"/><path d="M32.92,40.33H34V29.75c0-2.3.1-4.43,2.33-5.77a5.87,5.87,0,0,1,5.41,0c2.23,1.34,2.33,3.47,2.33,5.77V40.33h1.06V29.75c0-2.1,0-4.91-2.78-6.58a7.19,7.19,0,0,0-6.63,0c-2.81,1.67-2.78,4.48-2.78,6.58Z" style="fill:#231f20"/><path d="M76.58,40.33h1.07V29.75c0-2.3.1-4.43,2.33-5.77a5.87,5.87,0,0,1,5.41,0c2.23,1.34,2.33,3.47,2.33,5.77V40.33h1.06V29.75c0-2.1,0-4.91-2.78-6.58a7.19,7.19,0,0,0-6.63,0c-2.81,1.67-2.79,4.48-2.79,6.58Z" style="fill:#231f20"/><path d="M17,31.22a2.22,2.22,0,0,1,1.78,1c.44.67.79,1.39,1.23,2-1.9,2.79-4.86,1.49-7.57.3A20.32,20.32,0,0,0,9.6,33.48c-2-.52-3.57-.17-4.31,2.67a.42.42,0,1,0,.81.22c.57-2.19,1.79-2.47,3.28-2.08a20.88,20.88,0,0,1,2.71,1c3,1.31,6.25,2.73,8.48-.39.73.66,1.7.74,3.39-.55h0a11.56,11.56,0,0,0,3.74-5.88,15.08,15.08,0,0,0,.65-4.45A7.32,7.32,0,0,0,33,27.14a.43.43,0,0,0,.5-.33.43.43,0,0,0-.33-.5,6.63,6.63,0,0,1-4.45-3.19L35.09,19c.37-.23.48-.23.49-.68L35.12,8.24c.05-.41-.22-.6-.51-.42L31.78,9.67l0-5.88a.43.43,0,0,0-.8-.24l-4.52,7.92A6.28,6.28,0,0,0,24.88,8.9l1.79-5.78,1.14,1.11h0a.43.43,0,0,0,.69-.16l.61-1.67a.43.43,0,0,0-.42-.58L27.05,2,27.47.57A.4.4,0,0,0,27.25,0a.43.43,0,0,0-.55.25l-.42,1.34L25.17.54a.43.43,0,0,0-.7.17l-.61,1.68a.42.42,0,0,0,.43.56h0l1.59-.12L24.19,8.34a3.75,3.75,0,0,0-2.89-.78l-.13-.16-3-4.17a.42.42,0,0,0-.82.12l.47,5.79L13.38,6.49c-.26-.23-.73-.28-.74.14l0,7.84-4.16.24.66-1.45h0a.43.43,0,0,0-.38-.6H6.94a.42.42,0,0,0-.4.59l.68,1.5-1.44.07a.42.42,0,0,0-.44.4.44.44,0,0,0,.43.43l1.4-.06L6.53,17a.43.43,0,0,0,.4.6H8.72A.43.43,0,0,0,9.1,17h0l-.66-1.46,4.16-.24,0,3.63c0,.45.23.56.58.73l7.25,3.76c0,.08,0,.16,0,.23l-.06.22-.44.75A9.59,9.59,0,0,1,18.42,26c-1.43,1.17-2.93,2.4-2.53,4.73a.54.54,0,0,0,.19.35c-1.11,1.58-3.18,1.07-5.59.47C7.2,30.74,3.35,29.78.12,33.13a.43.43,0,0,0,0,.6.42.42,0,0,0,.59,0c2.9-3,6.5-2.11,9.57-1.35s5.43,1.34,6.71-1.15m1.08-17.06-4.64.26,0-7,4.64,2.72a5.26,5.26,0,0,0,0,4.07m-4.64,1.1,5-.29a5.07,5.07,0,0,0,2.24,2.29l0,2.16c0,1.1,0,2.19-.11,3.11l-7.1-3.68Zm8,7.06c.31-1.74,2.29-2.31,4.56-3l.82-.24a16.59,16.59,0,0,1,.07,9.16,10.69,10.69,0,0,1-3.44,5.45h0c-1.46,1.11-2.12.9-2.6.27-1.19-1.57-1.58-3.81-4.15-3.61-.19-1.73,1.06-2.75,2.25-3.73a5.42,5.42,0,0,0,2.24-2.82c.13-.56.16-1,.25-1.51m6.14-3.44c2.82-.91,4.57-1.45,5.51-5.26a.42.42,0,0,0-.31-.51.43.43,0,0,0-.51.31c-.83,3.38-2.34,3.81-5,4.66a11.25,11.25,0,0,0-1.2-2.49,5,5,0,0,0,.53-1.7L34.35,9l.41,9.24-6.41,4.17-.08,0,0-.27a21.07,21.07,0,0,0-.64-3.22.14.14,0,0,1,0-.06m-1-.57c-1.68.5-3.78.87-5.08,2.11,0-.33,0-.66,0-1,0-.63,0-1.27,0-1.87a3.82,3.82,0,0,0,4.1-1.21,12.61,12.61,0,0,1,.93,2m-8-8.91-.38-5,2.34,3.4a4.21,4.21,0,0,0-2,1.63m1.23,5.95c2.64-1.87.26-3.52,3-5.37,1-.58,2.59,0,3,2.27.33,1.73-.3,3.81-2.06,4.46h0a3.64,3.64,0,0,1-4-1.37m7-2.48v-.14L31,5v5.13Z" style="fill:#231f20"/><path d="M32.76,47.26a5.59,5.59,0,0,0,.88.06A2.26,2.26,0,0,0,35.06,47a1,1,0,0,0,.37-.77.88.88,0,0,0-.72-.88v0a.82.82,0,0,0,.6-.76.78.78,0,0,0-.43-.71,2,2,0,0,0-1.07-.21,6.59,6.59,0,0,0-1.05.08Zm.8-3a2.39,2.39,0,0,1,.35,0c.37,0,.58.14.58.42s-.22.44-.66.44h-.27Zm0,1.42h.28c.41,0,.74.15.74.51s-.33.52-.7.52h-.32Zm4.29-2v3.61h.92l.74-1.3a10.21,10.21,0,0,0,.61-1.29h0a14.51,14.51,0,0,0-.06,1.52v1.07h.75V43.67H40l-.77,1.42c-.22.39-.46.86-.65,1.28h0c0-.48,0-1,0-1.63V43.67Zm6,0v1a5,5,0,0,1-.13,1.2,3.42,3.42,0,0,1-.35.81l-.3,0,0,1.53h.62l0-.91h2.12l0,.91h.62l0-1.53-.36,0v-3Zm.76.66h.79v2.28h-1.2A3.87,3.87,0,0,0,44.5,46a4.48,4.48,0,0,0,.16-1.18Zm6.16,2,.28.93H52l-1.13-3.61H49.78l-1.09,3.61h.84l.25-.93Zm-.92-.61.22-.76.16-.7h0c.06.22.12.48.18.7l.23.76Zm4.41,1.52a5.85,5.85,0,0,0,.89.06A2.3,2.3,0,0,0,56.62,47a1,1,0,0,0,.37-.77.88.88,0,0,0-.72-.88v0a.82.82,0,0,0,.6-.76.78.78,0,0,0-.43-.71,2,2,0,0,0-1.07-.21,6.84,6.84,0,0,0-1.06.08Zm.81-3a2.39,2.39,0,0,1,.35,0c.37,0,.58.14.58.42s-.23.44-.66.44h-.27Zm0,1.42h.28c.41,0,.73.15.73.51s-.32.52-.69.52h-.32Zm4.29-2v3.61h.82V45.77h1.34v1.51h.81V43.67h-.81v1.39H60.23V43.67Zm5.54,0v3.61h.93l.73-1.3a10.24,10.24,0,0,0,.62-1.29h0c0,.47,0,1,0,1.52v1.07h.75V43.67H67.1l-.78,1.42c-.21.39-.45.86-.64,1.28h0c0-.48,0-1,0-1.63V43.67Zm5.56,0v3.61h2.56l0,.91h.62l0-1.53-.37,0v-3h-.81v2.94H71.33V43.67Zm6.27,3.61h.82V44.36h1v-.69H75.81v.69h1Zm4.09,0a5.85,5.85,0,0,0,.89.06A2.3,2.3,0,0,0,83.18,47a1,1,0,0,0,.37-.77.89.89,0,0,0-.72-.88v0a.82.82,0,0,0,.6-.76.78.78,0,0,0-.43-.71,2,2,0,0,0-1.07-.21,6.84,6.84,0,0,0-1.06.08Zm.81-3a2.39,2.39,0,0,1,.35,0c.37,0,.58.14.58.42s-.23.44-.66.44h-.27Zm0,1.42H82c.41,0,.73.15.73.51s-.32.52-.69.52h-.32Zm5.88-2.07A1.75,1.75,0,0,0,85.8,45.5a1.69,1.69,0,0,0,1.7,1.84,1.71,1.71,0,0,0,1.77-1.9,1.69,1.69,0,0,0-1.71-1.83m0,.64c.56,0,.87.56.87,1.21s-.32,1.23-.87,1.23-.88-.5-.88-1.21.32-1.23.88-1.23" style="fill:#231f20"/><rect x="5.9" y="51.17" width="83.37" height="0.54" style="fill:#231f20"/></g></g></svg>