<svg xmlns="http://www.w3.org/2000/svg" viewBox="0 0 447 328"><defs/><g data-name="Layer 2"><path fill="#46c1be" d="M435 45a43 43 0 00-41-11 42 42 0 00-11-19 43 43 0 00-61 0l-2 2a31 31 0 00-53 1 29 29 0 00-24-1 18 18 0 00-5-12 18 18 0 00-26 0 18 18 0 00-4 6 31 31 0 00-49 3 36 36 0 00-48 5A36 36 0 0085 8C65 8 49 24 49 43v2a31 31 0 00-23 29 30 30 0 003 13 30 30 0 000 60 28 28 0 007 28l2 1a18 18 0 00-4 3 18 18 0 000 26 19 19 0 002 2l-10 11c-15 17-15 62 7 75 3 3 27 14 42-3 1 7 47 19 64 8a42 42 0 0011 18 43 43 0 0060 0 42 42 0 0011-17c8 1 13 2 19-5a28 28 0 005-5l1 1c5 6 17 3 23 1a42 42 0 0010 14c16 16 52 17 66-2l10-13a21 21 0 0011 12c76 36 82-81 44-87a36 36 0 001-53 42 42 0 0014-50 43 43 0 0010-7 42 42 0 000-60" data-name="Layer 1"/></g></svg>