<svg xmlns="http://www.w3.org/2000/svg" viewBox="0 0 563.9 288.6"><defs/><g data-name="Layer 2"><g data-name="Layer 1"><path fill="#80c342" d="M.5 287.6s7.9-87.8 40.9-105.1-14 78.2-14 78.2 59.6-58 58-35a76.3 76.3 0 01-14.1 38.9s63-46 61.4-27.4-20.5 37.2-20.5 37.2 61.3-31.4 55-12.7-18.8 20.2-18.8 20.2 58-23 69.1 5.7z"/><path fill="#9aca3c" d="M.5 287.6s20.5-94 41.9-95.1c0 0 3.8-2 4.5 9.1s-19.5 59.1-19.5 59.1 33.2-64 27.3-77.2c-6-13.4-26.8 0-37.3 27.2C4.5 244.1.5 287.6.5 287.6"/><path fill="#9aca3c" d="M18 273s43.2-60.3 65.4-54.5S70.7 269.8 67 271c0 0 20-32.7 11.3-40-8-6.6-49 31.3-60.3 42"/><path fill="#9aca3c" d="M74 262.5s49.7-37 58.2-30-10.3 36.4-20 41.8c0 0 10.7-19.4 11.2-27.6s-49.3 15.8-49.3 15.8M104.2 279.7s64.8-35.9 63.4-21.2-17.7 25.7-17.7 25.7 14.5-20.5 10.3-21.7-56 17.2-56 17.2"/><path fill="#9aca3c" d="M217.5 287.6s-8.3-27.3-62.6-8c0 0 51.5-7.2 54.3 8z"/><path fill="none" stroke="#9aca3c" stroke-miterlimit="10" d="M5.7 287s28-88.7 43.2-101.4M26.1 287.6s34-45.8 59.3-62M74 287.8s32.2-36.1 57-51.5M122 287.8s27-25.6 43.4-29.2M177.2 288.2s17.7-7.7 29.6-9.6"/><path fill="#1e8234" d="M27.4 260.7c4-8.1 7.8-16.4 11.4-24.6S46 219.4 49 210.9c1.5-4.3 3-8.6 4-13a62.3 62.3 0 001.3-6.5 19.1 19.1 0 000-6.5 6.4 6.4 0 00-.5-1.4l-.4-.7-.4-.7a7 7 0 00-2.2-2.1 7.8 7.8 0 00-6-.7 18.6 18.6 0 00-6 2.7 35.7 35.7 0 00-5 4.2A69.1 69.1 0 0019 208.6a219 219 0 00-8.3 25.7A406 406 0 001 287.6a.5.5 0 01-.6.5.5.5 0 01-.4-.6A363.6 363.6 0 019.3 234a211 211 0 018.4-26 70.4 70.4 0 0115-22.8 37.6 37.6 0 015.4-4.4 20 20 0 016.4-2.9 11.2 11.2 0 013.6-.3 8 8 0 013.5 1.2 8.4 8.4 0 012.6 2.5l.5.8.5.8a7 7 0 01.6 1.7 20.4 20.4 0 010 7 63.1 63.1 0 01-1.4 6.7c-1.2 4.5-2.7 8.8-4.2 13-3.2 8.6-6.8 16.9-10.6 25.1s-8 16.3-12.2 24.3"/><path fill="#1e8234" d="M28.7 258.3A230.4 230.4 0 0149.2 236a120.7 120.7 0 0111.6-9.6 53.6 53.6 0 0113.3-7.4 20.2 20.2 0 017.5-1.2 10.6 10.6 0 017.1 3 8.7 8.7 0 012.1 3.3 12.1 12.1 0 01.7 3.9 25.4 25.4 0 01-1.3 7.5 70.4 70.4 0 01-6.1 13.8 129.6 129.6 0 01-8.2 12.8l-.7-.7a272.1 272.1 0 0123.3-17c4-2.5 8.2-5 12.5-7.2a64.8 64.8 0 0113.4-5.4 27.1 27.1 0 013.6-.6 18.6 18.6 0 011.8-.1 4.9 4.9 0 011.9.6 5.5 5.5 0 012.4 2.9 9.7 9.7 0 01.6 3.7 21.5 21.5 0 01-1.6 7 65.2 65.2 0 01-3 6.7 95.7 95.7 0 01-7.6 12.3 64.4 64.4 0 01-4.5 5.6 24.5 24.5 0 01-5.6 4.7l-.4-.8q9.6-4.8 19.4-9.1c6.5-2.9 13.1-5.7 20-8a55.3 55.3 0 0110.5-2.5 14.6 14.6 0 012.8 0 4.2 4.2 0 012.9 1.2 2.6 2.6 0 01.4.8 7 7 0 01.2.7 8.8 8.8 0 01.2 1.4 11.6 11.6 0 01-.2 2.9 27.5 27.5 0 01-4.7 9.9 64 64 0 01-7 8.3l-.6-1.1a108.1 108.1 0 0116.5-4.5 84.3 84.3 0 0117-1.6 42.2 42.2 0 0116.6 3.4 21.6 21.6 0 0111.5 11.9 21.6 21.6 0 00-4.7-7 21.3 21.3 0 00-7-4.6 41.6 41.6 0 00-16.5-3 83.2 83.2 0 00-16.8 1.9 115.8 115.8 0 00-16.2 4.7.7.7 0 01-.9-.4.7.7 0 01.2-.7 62.4 62.4 0 006.7-8.2 38.4 38.4 0 002.7-4.5 19.6 19.6 0 001.7-4.8 10.5 10.5 0 00.2-2.5 8.1 8.1 0 00-.1-1.2l-.2-.6a1.3 1.3 0 00-.2-.4 3 3 0 00-2-.7 12 12 0 00-2.5 0 54.8 54.8 0 00-10.2 2.4 371.2 371.2 0 00-39.3 16.7.5.5 0 01-.5-.9 24 24 0 005.4-4.5 61.8 61.8 0 004.5-5.5 95.6 95.6 0 007.6-12.1 64.4 64.4 0 003-6.5 20.5 20.5 0 001.5-6.9 8.9 8.9 0 00-.5-3.4 4.8 4.8 0 00-2-2.5 4.3 4.3 0 00-1.6-.5l-1.7.1a24.4 24.4 0 00-3.5.7 63.5 63.5 0 00-13.2 5.3c-4.2 2.3-8.3 4.7-12.3 7.3a293 293 0 00-23.3 17 .5.5 0 01-.7-.8 129.9 129.9 0 008-12.5 69.7 69.7 0 006.2-13.6 24.4 24.4 0 001.2-7.3 8.8 8.8 0 00-2.5-6.5 9.5 9.5 0 00-6.4-2.7 19.2 19.2 0 00-7.2 1.2 53 53 0 00-13 7.2 120.9 120.9 0 00-11.5 9.6 232.3 232.3 0 00-20.4 22 .5.5 0 01-.8-.7z"/><path fill="#80c342" d="M563.4 287.3s-8.2-87.8-42.7-105.1 14.6 78.2 14.6 78.2-62.2-58-60.6-35a74.6 74.6 0 0014.8 38.9s-65.7-46-64-27.4S447 274 447 274s-64.1-31.4-57.5-12.6 19.7 20.1 19.7 20.1-60.7-23-72.2 5.8z"/><path fill="#9aca3c" d="M563.4 287.3s-21.4-93.9-43.7-95.1c0 0-4-2-4.8 9.1s20.4 59.1 20.4 59.1-34.6-64-28.4-77.2c6.2-13.4 27.9 0 38.8 27.3 13.5 33.3 17.7 76.8 17.7 76.8"/><path fill="#9aca3c" d="M545.2 272.6s-45.1-60.2-68.4-54.4 13.4 51.3 17.3 52.5c0 0-20.9-32.7-11.8-40 8.3-6.7 51.2 31.2 63 42"/><path fill="#9aca3c" d="M486.6 262.3S434.8 225 426 232s10.7 36.6 20.9 42c0 0-11.2-19.5-11.7-27.7s51.4 15.8 51.4 15.8M455.1 279.4s-67.6-35.9-66.1-21.2 18.5 25.7 18.5 25.7-15.2-20.5-10.7-21.6 58.4 17.1 58.4 17.1"/><path fill="#9aca3c" d="M336.9 287.3s8.7-27.3 65.3-7.9c0 0-53.7-7.3-56.6 8z"/><path fill="none" stroke="#9aca3c" stroke-miterlimit="10" d="M558 286.7s-29.2-88.7-45.1-101.4M536.6 287.3s-35.5-45.8-61.9-62M486.6 287.5s-33.6-36-59.3-51.5M436.5 287.5s-28-25.5-45.2-29.2M379.3 287s-18.9-6.7-31.2-8.7"/><path fill="#1e8234" d="M535.3 260.4c-4.4-8-8.6-16-12.6-24.3s-7.8-16.6-11.1-25.1c-1.7-4.3-3.2-8.6-4.4-13a56.8 56.8 0 01-1.5-6.9 18.5 18.5 0 01.1-7 6.7 6.7 0 01.7-1.8 10 10 0 011-1.5 8.8 8.8 0 012.8-2.5 9 9 0 013.6-1 12.5 12.5 0 013.6.3 21.1 21.1 0 016.5 2.7 38.9 38.9 0 015.5 4.3 60.3 60.3 0 019 10.5 78 78 0 016.7 12.1 199.7 199.7 0 018.9 26 350 350 0 019.8 54l-1 .1a348.3 348.3 0 00-10.2-53.7 205 205 0 00-8.9-25.8 68 68 0 00-15.3-22.2 36.6 36.6 0 00-5.3-4 19.8 19.8 0 00-6-2.6 10.7 10.7 0 00-3.2-.3 7.6 7.6 0 00-3 .9 7.4 7.4 0 00-2.3 2 8.4 8.4 0 00-.8 1.3 6 6 0 00-.7 1.4 17.4 17.4 0 000 6.6 58.6 58.6 0 001.3 6.6c1.2 4.4 2.7 8.7 4.3 13 3.2 8.5 6.8 17 10.6 25.2s7.8 16.5 12 24.7M533.2 258.6a233.2 233.2 0 00-21.3-22 124.3 124.3 0 00-12-9.6 57 57 0 00-13.4-7.1 22 22 0 00-7.4-1.3 10 10 0 00-8 3.7 8.2 8.2 0 00-.9 1.5 10 10 0 00-.7 3.6 22.4 22.4 0 001.1 7.4 67.2 67.2 0 006.4 13.8 127.7 127.7 0 008.5 12.7l2.3 3-3-2.3c-7.8-6-15.8-11.7-24.1-16.9-4.2-2.5-8.4-5-12.8-7.2a69.3 69.3 0 00-13.6-5.4 30.6 30.6 0 00-3.5-.7l-1.8-.1h-.5a1.5 1.5 0 00-.4 0 4.2 4.2 0 00-.8.3 4.7 4.7 0 00-2.4 2.2 7.6 7.6 0 00-.8 3.4 18.5 18.5 0 001.5 7 58.6 58.6 0 003.1 6.6 95.7 95.7 0 008 12.3 64.7 64.7 0 004.8 5.5 24.3 24.3 0 005.6 4.6l-.4.8q-10-4.7-20.2-8.9c-6.7-2.8-13.6-5.5-20.6-7.7a63.7 63.7 0 00-10.6-2.5 16.7 16.7 0 00-2.6 0 4.6 4.6 0 00-2.3.5 1.3 1.3 0 00-.5.8 7.2 7.2 0 00-.2 1.2 8.8 8.8 0 00.1 2.6 18 18 0 001.8 5 39.6 39.6 0 002.8 4.6 62.6 62.6 0 007.1 8.2l2.2 2.1-2.9-1a124.5 124.5 0 00-16.9-4.6 90.2 90.2 0 00-17.4-2 45.5 45.5 0 00-17.2 3 28.7 28.7 0 00-3.9 1.8 18.5 18.5 0 00-1.8 1.3l-1.7 1.4a21.9 21.9 0 00-5 7.1 22 22 0 015-7.2l1.6-1.5 1.8-1.3a29.8 29.8 0 014-2 46.1 46.1 0 0117.2-3.3 91.2 91.2 0 0117.6 1.6 116.1 116.1 0 0117.2 4.4l-.7 1.2a63.6 63.6 0 01-7.3-8.5 26 26 0 01-4.9-10.1 10.3 10.3 0 010-3 8.3 8.3 0 01.2-1.4 2.6 2.6 0 011-1.5 5.7 5.7 0 013-.8 18 18 0 012.9.1 63.4 63.4 0 0110.8 2.7 402.7 402.7 0 0140.8 16.9l-.5.8a25.4 25.4 0 01-5.8-4.7 64.4 64.4 0 01-4.8-5.7 95.6 95.6 0 01-8-12.4 60.5 60.5 0 01-3.1-6.7 19.3 19.3 0 01-1.6-7.3 8.5 8.5 0 01.8-3.8 5.5 5.5 0 012.9-2.6 5 5 0 011-.2 2.6 2.6 0 01.5 0h2.4a30 30 0 013.6.8 70.5 70.5 0 0113.8 5.4c4.4 2.2 8.7 4.6 13 7.2a282.4 282.4 0 0124.1 16.8l-.6.7a128.9 128.9 0 01-8.7-12.8 69 69 0 01-6.4-14 23.4 23.4 0 01-1.2-7.7 11.3 11.3 0 01.8-3.9 9 9 0 011-1.8 10.8 10.8 0 011.4-1.4 11.4 11.4 0 017.4-2.7 22.6 22.6 0 017.7 1.4 57.6 57.6 0 0113.7 7.3 125.3 125.3 0 0112 9.6 234 234 0 0121.4 22.1z"/><path fill="#009f47" d="M114.7 286.3s-9.7-33.3-.8-66l1.9.7s-9.3 21 1.8 65.6z"/><path fill="none" stroke="#008c3e" stroke-miterlimit="10" d="M114.7 286.3s-9.7-33.3-.8-66l1.9.7s-9.3 21 1.8 65.6z"/><path fill="#009f47" d="M18.9 287.3s9.9-50.6 33-78.5l1.4 1.7S33.5 236.3 22.6 287z"/><path fill="none" stroke="#008c3e" stroke-miterlimit="10" stroke-width="1.2" d="M18.9 287.3s9.9-50.6 33-78.5l1.4 1.7S33.5 236.3 22.6 287z"/><path fill="#009f47" d="M385.7 282.5s-9.1-33.2 0-64l1.7.7s-8.8 22 1 63.6z"/><path fill="none" stroke="#008c3e" stroke-miterlimit="10" d="M385.7 282.5s-9.1-33.2 0-64l1.7.7s-8.8 22 1 63.6z"/><path fill="#009f47" d="M452.6 287.3s-17.5-38-12.4-75.6l2.3.3s-4.1 29.3 15.1 74.8z"/><path fill="none" stroke="#008c3e" stroke-miterlimit="10" stroke-width="1.1" d="M452.6 287.3s-17.5-38-12.4-75.6l2.3.3s-4.1 29.3 15.1 74.8z"/><path fill="#fecf8d" d="M126.4 227.2c-6.7 9.6-19.8 9.6-24.3-4s6.7-27.2 6.7-27.2a1.3 1.3 0 011 .3c1.6 1.4 1.8 5.7 1.8 5.7a4.6 4.6 0 01.4-.4c.8-.9 3-3 4.5-3 1.8 0 1.9 5.2 1.9 5.2s5.6-6.1 7.1-5.7c.3.1.7.8 1.2 2 2.1 5.1 5.2 19.2-.3 27"/><path fill="#fdba63" d="M126.4 227.2c-6.7 9.6-19.8 9.6-24.3-4s6.7-27.2 6.7-27.2a2 2 0 011 .3c1.2.9 2 2.4 2.7 4.8a64.6 64.6 0 012.8 17.7s-4.7-11.7-6-14-4.3 1.3-5 11 11 18.2 19.2 8.6c5.9-6.8 3.4-23.3 3.2-24.3 2.1 5.1 5.2 19.2-.3 27"/><path fill="#fdba63" d="M114.3 208.1s7.8-11 11.2-10 4 17.5 4 17.5l-2.2-3.1s0-11.5-2.8-12.2-10.2 10.4-10.2 10.4z"/><path fill="#fdba63" d="M111.5 202.6s2.3-4.3 5-4 3 5.4 3 5.4l-1.8.9s.3-4.7-1.4-4.4a21.3 21.3 0 00-4.7 2.1"/><path fill="#f99d3e" d="M127.5 201a74.3 74.3 0 012.3 10.7 26.2 26.2 0 01-.8 11 17.5 17.5 0 01-2.6 5 17.2 17.2 0 01-3.9 4 13 13 0 01-10.7 2.3 12 12 0 01-5-2.6 16.2 16.2 0 01-3.5-4.4 22.2 22.2 0 01-2.7-10.8 29.6 29.6 0 012.3-10.9 41.4 41.4 0 015.5-9.7.4.4 0 01.4-.1 2.5 2.5 0 01.7.2l.3.1.1.1a1 1 0 01.2.2 4.3 4.3 0 011 1.2 14.3 14.3 0 01.6 1.3l1 2.7a49.9 49.9 0 011.3 5.5 86.7 86.7 0 011.3 11.2 87.4 87.4 0 00-1.7-11.1 52.9 52.9 0 00-1.5-5.4 27.8 27.8 0 00-1-2.6l-.6-1.2a3.8 3.8 0 00-.8-1h-.2l-.2-.1a1.6 1.6 0 00-.4 0l.4-.3a40.3 40.3 0 00-5.4 9.5 29.5 29.5 0 00-2.2 10.5 21.2 21.2 0 002.5 10.4 14.9 14.9 0 003.2 4.1 11.2 11.2 0 004.7 2.5 12.3 12.3 0 0010.1-2.2 17.8 17.8 0 006.3-8.5 25.8 25.8 0 001-10.8 88.7 88.7 0 00-2-10.8"/><path fill="#fecf8d" d="M397.4 224c-6.7 9.6-19.8 9.7-24.3-4s6.7-27.2 6.7-27.2a1.3 1.3 0 011 .3c1.6 1.4 1.8 5.7 1.8 5.7a4.6 4.6 0 01.4-.4c.8-.9 3-3 4.5-3 1.8 0 1.9 5.2 1.9 5.2s5.6-6 7.1-5.6c.3 0 .7.7 1.2 1.9 2.1 5.1 5.2 19.2-.3 27.1"/><path fill="#fdba63" d="M397.4 224c-6.7 9.6-19.8 9.7-24.3-4s6.7-27.2 6.7-27.2a2 2 0 011 .3c1.2.9 2 2.4 2.7 4.7a64.6 64.6 0 012.8 17.8s-4.7-11.7-6-14-4.3 1.3-5 11 11 18.1 19.2 8.6c5.9-6.8 3.4-23.3 3.2-24.4 2.1 5.2 5.2 19.3-.3 27.1"/><path fill="#fdba63" d="M385.3 205s7.7-11.1 11.2-10 4 17.4 4 17.4l-2.2-3.1s0-11.5-2.8-12.2-10.2 10.4-10.2 10.4z"/><path fill="#fdba63" d="M382.5 199.4s2.3-4.3 5-4 3 5.4 3 5.4l-1.8.8s.3-4.6-1.4-4.3a21.1 21.1 0 00-4.7 2.1"/><path fill="#f99d3e" d="M398.5 197.7a74.3 74.3 0 012.3 10.8 26.3 26.3 0 01-.8 11 17.5 17.5 0 01-2.6 5 17.2 17.2 0 01-3.9 4 13 13 0 01-10.7 2.4 12 12 0 01-5-2.6 16.2 16.2 0 01-3.5-4.4 22.2 22.2 0 01-2.7-10.9 29.6 29.6 0 012.3-10.9 41.4 41.4 0 015.5-9.7.4.4 0 01.4-.1 2.5 2.5 0 01.7.2l.3.1.1.1a1.9 1.9 0 01.2.2 4.3 4.3 0 011 1.2 14.3 14.3 0 01.6 1.3l1 2.7a49.9 49.9 0 011.3 5.5 86.5 86.5 0 011.3 11.3 87.4 87.4 0 00-1.7-11.2 50.5 50.5 0 00-1.5-5.4 27.8 27.8 0 00-1-2.6l-.7-1.2a3.8 3.8 0 00-.7-1h-.1l-.2-.1h-.2a1.5 1.5 0 00-.4-.1l.4-.2a40.7 40.7 0 00-5.3 9.4 29.7 29.7 0 00-2.3 10.5 21.2 21.2 0 002.4 10.4 14.9 14.9 0 003.3 4.2 11.2 11.2 0 004.7 2.4 12.3 12.3 0 0010.1-2.2 17.9 17.9 0 006.3-8.5 25.8 25.8 0 001-10.8 88.7 88.7 0 00-2-10.8"/><path fill="#fecf8d" d="M424.5 216.3c8.7 12.4 25.5 12.4 31.2-5.1s-8.5-35-8.5-35a1.8 1.8 0 00-1.2.4 1 1 0 00-.2 0c-2 1.8-2.2 7.3-2.2 7.3l-.5-.5c-1-1.1-4-4-5.8-4-2.3 0-2.4 6.8-2.4 6.8s-7.3-7.8-9.3-7.3c-.3.1-.9 1-1.5 2.5-2.7 6.6-6.6 24.8.4 34.9"/><path fill="#fdba63" d="M424.5 216.3c8.7 12.4 25.5 12.4 31.2-5.1s-8.5-35-8.5-35a2.6 2.6 0 00-1.2.4 1 1 0 00-.2 0c-1.5 1-2.4 3-3.4 6-3.6 10.9-3.6 23-3.6 23s6-15.2 7.6-18 5.7 1.6 6.5 14-14 23.4-24.6 11.2c-7.6-8.8-4.4-30-4.2-31.4-2.7 6.6-6.7 24.8.4 34.9"/><path fill="#fdba63" d="M440.2 191.8s-10-14.3-14.6-13-5 22.5-5 22.5l2.8-4s0-14.8 3.6-15.6 13.2 13.4 13.2 13.4z"/><path fill="#fdba63" d="M443.7 184.6s-3-5.5-6.4-5.2-3.8 7-3.8 7l2.3 1.1s-.4-6 1.8-5.5 6 2.6 6 2.6"/><path fill="#f99d3e" d="M423.1 182.5a112.1 112.1 0 00-2.4 13.9 33.8 33.8 0 001.2 13.9 22.7 22.7 0 008.1 11 15.9 15.9 0 0013 2.8 14.4 14.4 0 006-3.2 19.4 19.4 0 004.3-5.4 27.3 27.3 0 003.2-13.3 38 38 0 00-3-13.6 52.5 52.5 0 00-6.9-12l.6.1a2 2 0 00-.5.1l-.3.1h-.1c-.1 0-.2.1-.1 0v.1a5 5 0 00-1 1.3 16.7 16.7 0 00-1 1.5l-1.3 3.4a65.8 65.8 0 00-2 7 110.1 110.1 0 00-2.1 14.3 113.5 113.5 0 011.6-14.5 66.8 66.8 0 011.7-7 35.8 35.8 0 011.3-3.5 16.3 16.3 0 01.8-1.7 5.3 5.3 0 011.2-1.6 2.2 2.2 0 01.2-.1l.2-.2a2.4 2.4 0 01.4-.2 3 3 0 01.8-.2.6.6 0 01.6.2 53.2 53.2 0 017 12.5 38.5 38.5 0 013 14 28.5 28.5 0 01-3.4 13.8 20.5 20.5 0 01-4.5 5.7 15.2 15.2 0 01-13.7 3.4 16.6 16.6 0 01-3.4-1.3 18.8 18.8 0 01-3.2-1.8 22.5 22.5 0 01-5-5.1 22.8 22.8 0 01-3.2-6.4 33.3 33.3 0 01-1-14.2 97.4 97.4 0 013-13.8"/><path fill="#fecf8d" d="M62.8 216.5C50 220.3 38.5 211.2 44 196S69 176.6 69 176.6a1.5 1.5 0 01.6 1c.4 2.3-2.4 6.3-2.4 6.3l.6-.1c1.4-.2 5-.6 6.2.4 1.5 1.3-2 6-2 6s9.2-1.4 10.3 0c.2.3 0 1.2-.3 2.6-1.7 6-8.9 20.6-19.2 23.7"/><path fill="#fdba63" d="M62.8 216.5C50 220.3 38.5 211.2 44 196S69 176.6 69 176.6a2.3 2.3 0 01.6 1c.5 1.6 0 3.5-1 6a72.4 72.4 0 01-9.8 17.7s4-13.6 4.5-16.5-4.7-1.9-12 6.3-3 23.6 10.8 21c10-2 19.3-18.4 19.8-19.4-1.7 6-8.8 20.6-19.1 23.8"/><path fill="#fdba63" d="M65.3 191.2s14.6-4.4 17-1-8.6 18.2-8.6 18.2l.2-4.4s8-10.1 6-12.6-16.3 2-16.3 2z"/><path fill="#fdba63" d="M66.8 184.3s5-2.2 7.2 0-1.2 6.8-1.2 6.8l-2.2-.5s3.5-4 1.8-4.8a23.9 23.9 0 00-5.6-1.5"/><path fill="#f99d3e" d="M82 194a84.5 84.5 0 01-5.5 11.1 29.5 29.5 0 01-8.3 9.2 19.4 19.4 0 01-5.7 2.6 19.6 19.6 0 01-6.3.8 16 16 0 01-6.1-1.4 13.3 13.3 0 01-7.6-9.7 17.8 17.8 0 010-6.4 25 25 0 015.1-11.4 33.4 33.4 0 019.7-8 46.8 46.8 0 0111.6-4.7.5.5 0 01.5.1 2.8 2.8 0 01.4.7 2.2 2.2 0 01.2.3v.5-.1a4.6 4.6 0 010 1.8l-.3 1.6a32 32 0 01-1 3 57.7 57.7 0 01-2.7 5.8 97.3 97.3 0 01-6.7 10.8 97.3 97.3 0 006.3-11 56.3 56.3 0 002.4-5.9 29.5 29.5 0 00.9-3l.2-1.5a4 4 0 000-1.4v-.4a1.6 1.6 0 00-.4-.3l.5.1a45.8 45.8 0 00-11.3 4.6 33.2 33.2 0 00-9.3 7.7 24 24 0 00-5 11 17 17 0 000 6 12.6 12.6 0 002.3 5.4 13.9 13.9 0 0010.5 5 20 20 0 0011.6-3 29 29 0 008.4-9A100 100 0 0082 194"/><path fill="#009f47" d="M487.6 286.9s2.5-21.7 20-44.8l1.4 2s-11.4 15.2-18.8 43z"/><path fill="none" stroke="#008c3e" stroke-miterlimit="10" stroke-width="1.2" d="M487.6 286.9s2.5-21.7 20-44.8l1.4 2s-11.4 15.2-18.8 43z"/><path fill="#fecf8d" d="M517.6 251.5c-13.4 4-25.7-5.6-19.8-21.7s26.4-20.6 26.4-20.6a1.6 1.6 0 01.6 1v.1c.5 2.4-2.5 6.6-2.5 6.6l.7-.1c1.4-.2 5.2-.6 6.5.5 1.6 1.3-2.2 6.3-2.2 6.3s9.9-1.5 11 0c.2.3.1 1.2-.3 2.7-1.8 6.4-9.3 21.9-20.3 25.2"/><path fill="#fdba63" d="M517.6 251.5c-13.4 4-25.7-5.6-19.8-21.7s26.4-20.6 26.4-20.6a2.4 2.4 0 01.6 1v.1c.6 1.6 0 3.6-1 6.4a77 77 0 01-10.5 18.7s4.4-14.4 4.9-17.5-5.1-2-12.9 6.6-3.2 25.1 11.6 22.3c10.5-2 20.4-19.4 21-20.5-1.8 6.4-9.4 21.9-20.3 25.2"/><path fill="#fdba63" d="M520.3 224.6s15.6-4.6 18-1-9.1 19.3-9.1 19.3l.2-4.6s8.5-10.8 6.4-13.4-17.4 2.1-17.4 2.1z"/><path fill="#fdba63" d="M521.9 217.4s5.3-2.4 7.6-.1-1.2 7.3-1.2 7.3l-2.3-.6s3.7-4.1 1.9-5a24.9 24.9 0 00-6-1.6"/><path fill="#f99d3e" d="M538.1 227.6a89.3 89.3 0 01-5.8 11.8 31.3 31.3 0 01-9 9.8 21.6 21.6 0 01-12.6 3.6 17 17 0 01-6.5-1.5 14.3 14.3 0 01-5.3-4.2 14.5 14.5 0 01-2.8-6.1 19 19 0 010-6.8 26.5 26.5 0 015.5-12 35.6 35.6 0 0110.2-8.6 49.7 49.7 0 0112.3-5 .6.6 0 01.5.1 3 3 0 01.5.7 2.4 2.4 0 01.2.4v.2a1 1 0 01.1.2 5.2 5.2 0 010 1.8c0 .6-.2 1.2-.4 1.7a32.3 32.3 0 01-1 3.3 61.6 61.6 0 01-2.9 6.2 105.8 105.8 0 01-7 11.5 103.6 103.6 0 006.5-11.7 62 62 0 002.6-6.2 33.3 33.3 0 001-3.2 15.3 15.3 0 00.2-1.6 4.2 4.2 0 000-1.5V210.1a1.6 1.6 0 00-.2-.2 1.5 1.5 0 00-.4-.3l.6.1a48.3 48.3 0 00-12 4.9 35.2 35.2 0 00-10 8.2 25.4 25.4 0 00-5.3 11.6 18 18 0 000 6.3 13.5 13.5 0 002.6 5.8 14.7 14.7 0 0011 5.4 21.3 21.3 0 0012.3-3.4 30.9 30.9 0 009-9.4 108 108 0 006.1-11.6"/><path fill="#845ba6" d="M387.2 156.4c-1.4 7-4.5 6.5-7.1 6.2.4-.6 6.6-7.3 1.7-10.5-5.1-3.4-4.6-.6-12.8-6.7a2.7 2.7 0 01.2.3c1.8 1.9 12 14 10.3 29.3-2 16.9-15.4 13.5-19.8 22.8 0 0-.7-6.6 6.9-12.6s7.1-13.7 4.7-17.4a19.3 19.3 0 01-.4 2.8c-1.1 5.5-7.4 19-23 25.7 0 0-56.8-36.9-57.5-36.9.2.6 24.3-79.4 23.9-78.7S286.8 64 286.8 64l-4.6-4c-2.3 18.6-14.1 17.3-27 22.2l-4.4 2h-.1a38.2 38.2 0 00-7 4.2 15 15 0 00-4.2 4.4s16.7 35.3 28.7 52.8l-22.4 34.1-27.1 17.1-3 4.6-6-1.3s-16.1-24.2 4.2-53c0 0-15-9.5-17.5-23.9 0 0-2.1 6.3 2.4 11.4s10 13.5 4.2 18.8c0 0 0-8.8-4.7-11.7s-13.2-19.9-7.6-41.8 26.9-31.4 31.3-43.3.9-22 14-35.2S258.9 7.9 263.8 9c0 0 26.1-18.5 56 1.8 26.4 17.8 21.7 44.5 24 60.9a28.4 28.4 0 001.5 6.2c5.8 15.1 22.8 18.1 26 28.8s-2.3 21.6 3.8 28.7 13.5 14 12.1 21"/><path fill="#a788be" d="M250.5 27.6S255 40 236 57.6s-29.8 29.9-27.7 49.7 20.6 24.6 18.2 34.4-11.7 18-10 34.1 6 17.3 6 17.3l7-4s-11.4-11.4-6.2-26.1 11.8-20 9-29.2-18.3-16.5-18.9-34.9 15.4-29.3 21.3-33.9c13-10.1 23.9-19.8 16-37.4"/><path fill="#74489d" d="M239.6 96.1s-2 11 2.6 31.2c5 21.9 12.2 27 12.2 27l13.4 5.6 56.8 2.6a230.5 230.5 0 004.2-48.3c-.7-25.2-3.5-27.2-3.5-27.2z"/><path fill="#f391bc" d="M393.6 287.5h-213s30.6-67.7 32-82.8a28 28 0 016-13.2 54.2 54.2 0 0143.4-22.2c27.2-.2 59.4-1.1 64.9.6 20.4 6.5 66.7 117.6 66.7 117.6"/><path fill="#f17db1" d="M311.9 287l29.9-14.4a22.6 22.6 0 0019.2-32c-10.3-22.3-24-50.1-31.6-58.3-13.4-14.2-58.3-8-70.5-7.4s-42.1 14-39.3 25.8-6.8 29.2-9.8 48.3 52 38.4 52 38.4h-81.1s30.3-68.4 31.7-83.5a28 28 0 016-13.2 54.2 54.2 0 0143.4-22.2c27.2-.1 59.3-1.1 64.9.6 20.4 6.6 66.8 118.2 66.8 118.2h-94.4z"/><path fill="#f8a084" d="M271.9 142.6s6.3 19.2 2.3 28.4c0 0 11.7 8.8 23.7 0 0 0-3.7-16.7-.7-28.4z"/><path fill="#f68d6f" d="M273.2 146.8s4.4 15.2 1 24.2c0 0 11.6 9.2 23.7 0 0 0-14.7 2.5-16.4-4.4s-2-12.7.3-12.5a17.6 17.6 0 0014.3-6.7z"/><path fill="#fab49b" d="M330.2 106.5l-.2 1.3-.3 1.2a39.8 39.8 0 01-2.7 8 68.7 68.7 0 01-36.8 33 15.4 15.4 0 01-10.3 0c-18.3-6.5-42.1-27.7-40.3-50.5.8-9.7 1-17.8.9-24a125.6 125.6 0 01.4-14.2l40.9-47.8 48.6 46.8s-.4 3-.7 8.8l-.2 11.6.2 5.3c.1 4 .3 8.5.7 13.4a31.9 31.9 0 01-.2 7"/><path fill="#f8a084" d="M277 37.6a8.2 8.2 0 016.8 6c1.6 5.6 8.4 21 21.5 24.1L287 38.3l-11-4.7zM272.4 96.5s-1.3-11.3-8-14.4-14.1 4.2-15.4 6.5.9 6.5 6.4 9.1c0 0 13.8-3 17-1.2M293.2 97s1.3-12 8.3-15.3 15.1 4.6 16.4 7-.9 6.8-6.8 9.7c0 0-14.6-3.1-18-1.4"/><path fill="#f8a084" d="M334.1 106l-2.3 3.2-2 .8a55.5 55.5 0 01-16.3 25.2 89.2 89.2 0 01-9.4 7.5h-.2a67.7 67.7 0 01-7.7 4.6 56.7 56.7 0 01-6.2 2.7 15.4 15.4 0 01-10.3 0c-16.3-5.8-37-23.3-40-43.2l-.2-1.3a31 31 0 010-6c.6-8 .8-14.7.8-20.4v-3.5l36.4-40.3s3.2 12.7-7.2 32.2S243.1 83 243.1 83s-.4 0-.5 17.4c0 18.6 14.3 29.8 27 39.7 10.6 8.4 19 6.4 19 6.4 20.8-5.8 33.9-25.7 38.9-34.7 1-2 1-7.3 1.2-9.6l1.8.2c.3-.6 3.6 3.8 3.6 3.7"/><path fill="#74489d" d="M270.1 68a2.6 2.6 0 012.3 3c-.2 1.2-.6 2.3-1.4 2.4-1.9.3-15-2.4-27 2.4 0 0 7.5-10 26.1-7.7"/><path fill="none" stroke="#623f99" stroke-miterlimit="10" stroke-width=".5" d="M270.1 68a2.6 2.6 0 012.3 3c-.2 1.2-.6 2.3-1.4 2.4-1.9.3-15-2.4-27 2.4 0 0 7.6-10 26.1-7.7z"/><path fill="#f8a084" d="M277.9 105.2s-1.6 3.2 0 4.5 3.2-.6 4 .9a3.6 3.6 0 002.5 1.6V96.6z"/><path fill="#f8a084" d="M291 105.2s1.6 3.2 0 4.5-3.2-.6-4 .9a3.6 3.6 0 01-2.5 1.6l-3.7-10.2c0-.7 1.5-1.7 2.5-2.1 2.2-.9 3.8.3 5.2 2.2z"/><path fill="#231f20" d="M316.6 93.3a12.7 12.7 0 01-2.2 2.6 20.8 20.8 0 01-2.8 2.1.2.2 0 01-.1 0 11.8 11.8 0 00-3.4-.6 18.6 18.6 0 00-3.4 0 24.2 24.2 0 00-3.4.7l-1.6.5-1.6.5h-.1a16.4 16.4 0 01-4.3-2.5 16.5 16.5 0 004.4 2.3h-.1l1.6-.6 1.7-.5a24.9 24.9 0 013.4-.7 19.3 19.3 0 013.5-.1 12.2 12.2 0 013.5.6h-.2a21.5 21.5 0 002.8-2 12.2 12.2 0 002.3-2.4"/><path fill="#fff" d="M293.7 96.6s2.6-12 10.9-13.3 12 9.1 12 10-10.2 12.4-23 3.3"/><path fill="#e1f4fd" d="M310.9 86s3.8 4 3.1 6.8c-.6 2.7-6.3 7.8-17.3 4a2.5 2.5 0 01-1.7-3.4c.1-.3 1-2.3.3-1.5a20.7 20.7 0 00-1.6 4.7s7 5.7 15 2.6a16.6 16.6 0 008-6s-.9-3.8-5.8-7.3"/><path fill="#e1f4fd" d="M299.7 88.6a6.2 6.2 0 106.1-6.4 6.3 6.3 0 00-6.1 6.4"/><path fill="#231f20" d="M299.1 90.1a6.3 6.3 0 1012.5 0 6.9 6.9 0 00-.5-2.5 6.3 6.3 0 00-5.7-4 6.3 6.3 0 00-6.2 5.5 5.7 5.7 0 000 1"/><path fill="#231f20" d="M293.7 96.6s1.6-8 6.2-12.5c6.2-6 12.6.1 15.5 2.2s7.8 1.2 7.8 1.2-2.8 5.5-6.8 5c0 0-5-8-11.9-7.7s-10 8.4-10.8 11.9"/><path fill="#fab49b" d="M317 96.8s-17.7-2.1-20.6 4.5 20.4 3 20.6-4.5"/><path fill="#fff" d="M301.2 89.5a1.3 1.3 0 101.3-1.4 1.3 1.3 0 00-1.3 1.4"/><path fill="#231f20" d="M316.6 93.3l-.1.4-.3.4a9.3 9.3 0 01-.7.8l-1.4 1.4a.2.2 0 01-.2 0 15.6 15.6 0 00-4-.8A16.8 16.8 0 00298 99a.1.1 0 01-.1 0 16.4 16.4 0 01-4.3-2.5 16.5 16.5 0 004.4 2.2h-.2a17.2 17.2 0 017.7-3.5 17.4 17.4 0 014.3-.2 16 16 0 014.2.8h-.2l1.5-1.3.7-.7.3-.3c.2-.1.3-.3.2-.5"/><path fill="#f8a084" d="M317 96.8a33.2 33.2 0 00-5.1-.3 37.1 37.1 0 00-5 .4 33.8 33.8 0 00-5 1.2l-2.4.8c-.8.2-1.6.7-2.4 1a.2.2 0 01-.3-.1.2.2 0 010-.3l2.3-1.4a21.8 21.8 0 012.4-1.1l1.2-.5 1.3-.4a23.3 23.3 0 012.6-.6 19.8 19.8 0 015.3-.2 13.6 13.6 0 015.1 1.5M277.9 105.2s4.3-4.1 3.5-9.6c-1-7.7-3.4-13-8.5-15.8 0 0 11.5 3.6 11.7 20.4 0 12.8-6.7 5-6.7 5"/><path fill="#fab49b" d="M284 94s1.2 6.4 0 9.9.8 4.8 2.2 4a2.1 2.1 0 001.3-2s2.6 3 3.5-.7-7-11.1-7-11.1"/><path fill="#231f20" d="M249.7 92.7a11.7 11.7 0 002.2 2.3 21.6 21.6 0 002.6 1.8h-.1a11.5 11.5 0 013.2-.6 19.1 19.1 0 013.3.1 25.3 25.3 0 013.3.7l1.6.4 1.5.6a15.5 15.5 0 004-2.2 15.7 15.7 0 01-4 2.4l-1.6-.5-1.6-.5a23.4 23.4 0 00-3.2-.5 18.4 18.4 0 00-3.2-.1 11.3 11.3 0 00-3.2.6.2.2 0 01-.1 0 20 20 0 01-2.6-2 11.8 11.8 0 01-2.1-2.5"/><path fill="#fff" d="M271.3 95.8S269 84.5 261 83.3s-11.3 8.7-11.3 9.5 9.6 11.8 21.6 3.1"/><path fill="#e1f4fd" d="M255 85.7s-3.5 4-2.9 6.6c.6 2.4 6 7.3 16.4 3.8a2.4 2.4 0 001.6-3.3c0-.3-.8-2.2-.3-1.4a19.8 19.8 0 011.5 4.5s-6.5 5.3-14.1 2.4a15.8 15.8 0 01-7.5-5.6s.7-3.7 5.4-7"/><path fill="#e1f4fd" d="M265.7 88.3a5.8 5.8 0 11-5.8-6.2 6 6 0 015.8 6.2"/><path fill="#231f20" d="M265.8 89.7a6 6 0 11-11.8 0 6.5 6.5 0 01.4-2.4 6 6 0 015.5-3.8 6 6 0 015.8 5.2 5 5 0 010 1"/><path fill="#231f20" d="M271.3 95.8s-1.5-7.5-5.8-11.8c-5.9-5.6-12 .1-14.7 2s-7.4 1.2-7.4 1.2 2.6 5.2 6.5 4.7c0 0 4.2-7.7 10.6-7.3s10.2 8 10.8 11.2"/><path fill="#fab49b" d="M249.3 96s13.1-3.8 21.1 5c4.6 5.2-21 2-21.1-5"/><path fill="#fff" d="M258.8 88.4a1.2 1.2 0 11-1.2-1.3 1.3 1.3 0 011.2 1.3"/><path fill="#231f20" d="M249.7 92.7h-.2a.3.3 0 000 .1 3.7 3.7 0 00.4.3 15.4 15.4 0 001.8 1.6h-.2a15.3 15.3 0 014.2-.5 20.3 20.3 0 014 .5 22.3 22.3 0 014 1.3l1.9 1 1.7 1a15.5 15.5 0 004-2.2 15.7 15.7 0 01-4 2.4l-1.9-1-1.8-.9a22 22 0 00-3.9-1.3 19.7 19.7 0 00-4-.5 14.5 14.5 0 00-4 .5.2.2 0 01-.2 0l-1.1-1.2-.6-.6a2.8 2.8 0 01-.2-.3s-.1-.1 0-.2 0 0 .1 0"/><path fill="#f8a084" d="M249.3 96a10.6 10.6 0 014.7-1.4 18.4 18.4 0 015 .3 26.7 26.7 0 014.9 1.4l2.2 1 2.2 1.3a.2.2 0 010 .2.2.2 0 01-.2.1l-2.3-.8-2.3-.8a45 45 0 00-4.7-1.1 31.5 31.5 0 00-4.7-.6 19.7 19.7 0 00-4.9.4M331.3 106c-1-.1 5 1 4.4.5 9 5.3 8.8-12.4 8.3-18.3s-3-11.6-9.2-9.6c-3.6 1.2-4.2 3.2-5.2 6-.8 2 4.5 19 4.5 19-.1-.1-11.6 16.6-11.8 16.5 8-15 1.4-33.3.9-35.9-.6-2.7-2.6-7.7-7-8.9-4.4-1.1-20.5-2-21.8-1.8 1.6-.3 23-2.8 31-4.1-.1 2.7 2.6 7.8 2.7 12 1.9-1.6 3.4-4.7 7.8-5.6 6.1-1.3 4.4 8.6 5.2 12.4 2.1 9.3-1.9 20-9.8 18"/><path fill="#74489d" d="M293.9 68.2a2.7 2.7 0 00-1.9 3.2c.3 1 .8 2.1 1.6 2.2 1.9 0 14.7-4.2 27-.8 0 0-8.5-9-26.7-4.7"/><path fill="none" stroke="#623f99" stroke-miterlimit="10" stroke-width=".5" d="M293.9 68.2a2.7 2.7 0 00-1.9 3.2c.3 1 .8 2.1 1.6 2.2 1.9 0 14.7-4.2 27-.8 0 0-8.5-9-26.7-4.6z"/><path fill="#f68d6f" d="M254.6 105a1 1 0 01.3-1.3.9.9 0 011.3.4 1 1 0 01-.4 1.3.9.9 0 01-1.2-.3M260.3 109.2a1 1 0 01.3-1.4.9.9 0 011.3.4 1 1 0 01-.3 1.3.9.9 0 01-1.3-.3M249.5 109.3a1 1 0 01.3-1.3.9.9 0 011.3.3 1 1 0 01-.4 1.3.9.9 0 01-1.2-.3M255.5 108.5a1 1 0 01.3-1.4.9.9 0 011.3.4 1 1 0 01-.3 1.3 1 1 0 01-1.3-.3M257.7 105.7a.7.7 0 01.2-.9.6.6 0 01.9.3.7.7 0 01-.3.9.6.6 0 01-.8-.3M266.9 109.8a.7.7 0 01.2-1 .6.6 0 01.9.3.7.7 0 01-.3 1 .6.6 0 01-.8-.3M263.9 110.2a.7.7 0 01.2-.9.6.6 0 01.9.2.7.7 0 01-.2 1 .6.6 0 01-.9-.3M258 113.2a1 1 0 11-1-1 1 1 0 011 1M254 106.8a.6.6 0 11-1 0 .6.6 0 111 0M266.5 105.4a.6.6 0 11-.6-.6.6.6 0 01.6.6M254 102.3a.6.6 0 11-.5-.6.6.6 0 01.6.6M248.7 106.2a.6.6 0 11-.6-.6.6.6 0 01.6.6M261.2 112.2a.6.6 0 11-.6-.6.6.6 0 01.6.6M251 111.6a.6.6 0 11-.6-.6.6.6 0 01.6.6M264.4 105.8a1.1 1.1 0 11-1-1.2 1.2 1.2 0 011 1.2M252 105.3a1 1 0 11-1-1.1 1 1 0 011 1M254.6 111a.8.8 0 11-.8-.8.8.8 0 01.8.8M261.9 102.6a1 1 0 11-1-1 1 1 0 011 1M306 105.8a1 1 0 01.4-1.4.9.9 0 011.3.4 1 1 0 01-.4 1.3 1 1 0 01-1.2-.3M311.8 109.8a1 1 0 01.3-1.3.9.9 0 011.3.4 1 1 0 01-.3 1.3.9.9 0 01-1.3-.4M301 110a1 1 0 01.3-1.3.9.9 0 011.3.3 1 1 0 01-.3 1.4.9.9 0 01-1.3-.4M307 109.2a1 1 0 01.3-1.4 1 1 0 011.3.4 1 1 0 01-.3 1.3 1 1 0 01-1.3-.3M309.2 106.4a.7.7 0 01.2-.9.6.6 0 01.9.3.7.7 0 01-.3.9.6.6 0 01-.8-.3M318.4 110.5a.7.7 0 01.2-1 .6.6 0 01.9.3.7.7 0 01-.3 1 .6.6 0 01-.8-.3M315.4 110.9a.7.7 0 01.2-1 .6.6 0 01.9.3.7.7 0 01-.2 1 .6.6 0 01-1-.3M309.5 113.9a1 1 0 11-1-1 1 1 0 011 1M305.6 107.5a.6.6 0 11-1.1 0 .6.6 0 111 0M318 106a.6.6 0 01-.6.7.6.6 0 01-.5-.6.6.6 0 01.5-.6.6.6 0 01.6.6M305.6 103a.6.6 0 11-.6-.6.6.6 0 01.6.6M300.2 107a.6.6 0 11-.6-.7.6.6 0 01.6.6M312.7 112.9a.6.6 0 11-.6-.6.6.6 0 01.6.6M302.5 112.3a.6.6 0 11-.6-.6.6.6 0 01.6.6M316 106.5a1.1 1.1 0 11-1.2-1.2 1.2 1.2 0 011.1 1.2M303.5 106a1 1 0 11-1-1.1 1 1 0 011 1.1M306.1 111.7a.8.8 0 11-.8-.8.8.8 0 01.8.8M313.4 103.3a1 1 0 11-1-1.1 1 1 0 011 1.1"/><path fill="#dd6f54" d="M239.6 105.4a4.8 4.8 0 000 1.6l.4 1.6 1 3.1a48.4 48.4 0 002.6 6 54 54 0 003.4 5.6 59.9 59.9 0 003.9 5.2 82 82 0 0019.8 16.7 50 50 0 005.8 3 30.4 30.4 0 006.1 2 13.6 13.6 0 003.2.3 16.3 16.3 0 003.2-.5 35.4 35.4 0 006-2.2 66.9 66.9 0 0011.3-6.7 84.7 84.7 0 0010-8.5 74 74 0 01-21 15.6 37 37 0 01-6.2 2.4 17.2 17.2 0 01-3.3.6 14.4 14.4 0 01-3.3-.3 31.3 31.3 0 01-6.3-2 52.6 52.6 0 01-6-3 79.2 79.2 0 01-20-16.8 52.9 52.9 0 01-7.2-11 40 40 0 01-2.4-6.2 26.8 26.8 0 01-.8-3.2l-.2-1.6v-.9a1.9 1.9 0 010-.7M279.3 87.3a29.5 29.5 0 012 6.6 12.8 12.8 0 01-.5 6.8 20.7 20.7 0 01-1.5 3 23.1 23.1 0 00-1.7 3 2.5 2.5 0 00-.2 1.6 2.3 2.3 0 00.8 1.2 2.3 2.3 0 001.5.5 9.4 9.4 0 001.7-.2.2.2 0 01.2.1 4.7 4.7 0 001.1 1.5 2.5 2.5 0 001.6.6 3.2 3.2 0 002.8-2 .3.3 0 01.2-.1 7.4 7.4 0 001.9.1 2.2 2.2 0 001.6-.6 3.4 3.4 0 00.3-3.5.1.1 0 010-.1.1.1 0 01.2 0 3.8 3.8 0 01.5 2 3 3 0 01-.6 2 2.6 2.6 0 01-2 .8 6.1 6.1 0 01-2-.2l.3-.2a4.4 4.4 0 01-1.3 1.6 3.1 3.1 0 01-2 .6 2.9 2.9 0 01-1.8-.7 4.9 4.9 0 01-1.2-1.6h.2a7.8 7.8 0 01-1.8.3 2.7 2.7 0 01-1.7-.5 3 3 0 01-.8-3.4 23 23 0 011.8-3 20.5 20.5 0 001.6-3 12.5 12.5 0 00.5-6.7 30.3 30.3 0 00-1.7-6.6"/><path fill="#dd6f54" d="M273.6 147.2a82 82 0 012 12 43.9 43.9 0 01.1 6 23.8 23.8 0 01-1.1 6l-.2-.5a24 24 0 005.6 2.8 20.6 20.6 0 006.1 1.2 16.7 16.7 0 006.1-1 18.3 18.3 0 005.4-3l-.2.5a143.8 143.8 0 01-1.4-18 25 25 0 01.7-6 24.4 24.4 0 00-.5 6c0 2 .2 4 .4 6 .4 4 1 8 1.7 11.8a.5.5 0 01-.2.4 19.1 19.1 0 01-5.6 3.2 17.6 17.6 0 01-6.4 1 21.6 21.6 0 01-6.4-1.2 24 24 0 01-5.8-3 .4.4 0 01-.2-.4 22.8 22.8 0 001.1-5.8 42 42 0 000-5.9 66.6 66.6 0 00-2-11.8.4.4 0 01.8-.2"/><path fill="#f68d6f" d="M314.3 196.3a5.2 5.2 0 01-1.4-4.3c.4-2.5 1.5-3 1.5-3s3.1-2.8 11.8-3c0 0-10.3 1.6-11.8 3.7-2.3 3.2.4 6.2.4 6.2z"/><path fill="#6dcff6" d="M239.8 146.2s-5.3.5-4.5-1.9l96.8 5.6v-3.6a4 4 0 00-4-4h-95s-.5 4.5 6.8 4"/><path fill="#20c4f4" d="M233.1 142.3h95s4.2-.3 4 4.9l-96.8-2.9z"/><path fill="#f5ecaf" d="M234 143.3h94.7v16.5H234z"/><path fill="#fffac2" d="M235.3 144.3H330v16.5h-94.7z"/><path fill="#fffde9" d="M236.4 145.4h94.7v16.5h-94.7z"/><path fill="#c7eafb" d="M331.4 242.9h-91.8v-96.7h91.8a4.8 4.8 0 014.9 4.9v87a4.8 4.8 0 01-4.9 4.8"/><path fill="#8ed8f8" d="M233.1 237s2.2 5.9 6.5 5.9v-96.7s-5.1 0-6.5-3.9z"/><path fill="#20c4f4" d="M239.6 242.9s-4.7 0-6.5-5.8v-94.8s.7 4 6.5 4c0 0-2.2 1.2-5.8 0l.2 90.2a8.2 8.2 0 005.6 6.4M239.6 242.9v-96.7H325l-84.4 1-1 95.7z"/><path fill="#20c4f4" d="M245.6 200l3.1-2s7.2 6 10.7-.3l-11.8-5.8-7.8 8.3z"/><path fill="none" d="M239.8 191.9h19.7v8.8h-19.7z"/><path fill="#20c4f4" d="M239.6 242.9s4.1-7 3-10.7-3.4-9.3-1.4-9.9-.2 5.9 2.7 6.3 7.4-11 7.4-11l-15-9-.6 31s.9 3.2 3.9 3.2"/><path fill="none" d="M235.7 208.6h15.6v34.3h-15.6z"/><path fill="#f8a084" d="M226 242.6s-7.9-35.9-5-38.4 17.8-17.7 20.8-17.5 16 9 15.4 11-7.4 2.3-12.4-3a20.2 20.2 0 00-6 4.9s9.1 1.2 11.4 3.5a3.7 3.7 0 011 4.6s2.9 3.2.9 5.8c-.6.8-1 1-.8 1.6a7.9 7.9 0 01-.7 4.9c-1.4 2.7-3.8 6.1-5.8 6a2.9 2.9 0 01-.8-3.2c.5-2.2 1-2.6 1-2.6s-3.4-.5-5.2.3-2.2 3.8-1 9 .9 7.6-.5 10.7a15.2 15.2 0 00-.8 7.2s-8.6 1-11.5-5"/><path fill="#f68d6f" d="M239.7 211.7s10.5.1 11.7 3.8-4.3 11.3-6.7 10.5-1-4.1 0-5.6c0 0-4.7-1-6 2.5s1.1 8.2 1 11a17.5 17.5 0 01-2 8 30.8 30.8 0 00-.3 5.6s-8.2 1.2-11.5-5c0 0 8 4 9.2 0s1.5-14.4 1-18 .7-5.3 2.6-5.9 9-1 8.9.8-3 4.7-2.7 5.8 4.8-3.2 5.6-6.5 0-3.4-1.3-4.6-7.8-2.3-9.5-2.5M250.8 208.2a3.7 3.7 0 00-.4-5.4c-2.8-2.6-11.7-3.2-11.7-3.2s10.7 2.3 11.7 4.3a3 3 0 01-.4 3.5z"/><path fill="#f68d6f" d="M255.8 195.5s1 1.7 0 2-6.6-.5-8.9-2.8-2.2-2.8-2.2-2.8a45.6 45.6 0 01-4.3 3.4c-3.3 2.5-3.9 5-3.9 5l2.2-.7s4.5-4 6-4.8c0 0 4.6 5.2 10.7 4.1 0 0 3.7-.6.4-3.4"/><path fill="#fab49b" d="M240.4 213.3s7.7.7 7.6 2-8.8 1.9-10.8 2-2.3 5.8-3.1 5-1.4-7-.4-9c.6-1.3 6.7 0 6.7 0M240.2 206s9 1 9.3 3.1-7.1.7-9.7.8-4.4 1.7-4.8 1-3-3.2-2.2-3.8 6.8-1.2 7.4-1.1M237.2 201.1a6.1 6.1 0 012.2.1c2.8.7 9.7 2.4 9.8 3.4.2 1.2-7.6-.8-10-.4s-3.3 1.4-4.2.8c-4.9-3.1-1.3-3.4 2.2-3.9"/><path fill="#fab49b" d="M240.8 188.3s3.1.7 1.2 3.6-6.7 5-8.3 8.7-9.6 7.2-10.7 5.4 13-16.7 17.8-17.7"/><path fill="#fab49b" d="M234.9 198.7s-2.6 3.1 2.1 3.3l-1.4 2.8s-1.6 2-.5 3.4l1.9 2.3s-2.7.7-2.3 4 .7 5.4-.2 8.3-3 8-6.4 7.9c0 0-1.8 1 0 2.7 5 4.6 6.9 8.3 4.5 8.5-6.7.6-6.1-2.7-8.2-12.3s-4.2-24 .7-27.7a15.6 15.6 0 019.7-3.3"/><path fill="#dd6f54" d="M244.6 194a13 13 0 002.7 2.5 11.7 11.7 0 003.3 1.7 11.5 11.5 0 003.7.5 4.7 4.7 0 001.7-.3 2.3 2.3 0 00.7-.5.4.4 0 000-.5 4.6 4.6 0 00-1-1.4l-1.5-1.2-3-2.5a29.2 29.2 0 00-6.3-4l-1.8-.8-.9-.3-.4-.2h-.3a15.8 15.8 0 00-3.2 2l-6 4.8-5.8 5.2-2.9 2.5a31.8 31.8 0 00-2.7 2.7 30.4 30.4 0 012.6-2.7l2.9-2.7 5.6-5.2c2-1.7 3.9-3.4 6-5a15.8 15.8 0 013.3-2 2.3 2.3 0 01.3-.1h.8l1 .4 1.7.7a28.8 28.8 0 016.6 4.1l3 2.5 1.5 1.3a5.2 5.2 0 011.3 1.6v.7a1.3 1.3 0 01-.2.6 2.8 2.8 0 01-.9.6 5.1 5.1 0 01-2 .5 12.1 12.1 0 01-4-.6 11.4 11.4 0 01-3.5-1.7 6 6 0 01-2.2-3.3"/><path fill="#dd6f54" d="M245 195.1l-3 2.3-3 2.4-.2-.5a38.5 38.5 0 018.7 1.6 8.3 8.3 0 014 2.3 2.6 2.6 0 01.4.6 1.6 1.6 0 010 .3l.2.3a7.7 7.7 0 010 1.2 4.1 4.1 0 01-.5 2.4.5.5 0 01-.8-.5 3.8 3.8 0 00.4-1.9 5.8 5.8 0 000-1l-.1-.2-.1-.2a2 2 0 00-.2-.4 7.6 7.6 0 00-3.5-2.1 29.5 29.5 0 00-4.2-1.2l-4.3-.6a.2.2 0 01-.2-.5l3-2.5 3-2.5a.5.5 0 01.6.1.5.5 0 01-.1.7z"/><path fill="#dd6f54" d="M238.7 204.8a36.3 36.3 0 017.7.7 16 16 0 013.8 1.3 7.3 7.3 0 011.7 1.1 3.8 3.8 0 011.1 2v-.1a5.7 5.7 0 01.3 1.5 4.9 4.9 0 01-.2 1.5 5 5 0 01-1.5 2.6.5.5 0 01-.7 0 .5.5 0 010-.5 5.7 5.7 0 00.7-1.1 4.2 4.2 0 00.4-1.2 5.4 5.4 0 00.1-1.2 4.8 4.8 0 00-.2-1.2 3.9 3.9 0 00-2.1-2.5 17.6 17.6 0 00-3.5-1.3 33.4 33.4 0 00-3.7-.9l-3.8-.5"/><path fill="#dd6f54" d="M240.2 211.7a24 24 0 018.4 1.1 8 8 0 012 1.1 3.5 3.5 0 011.4 2 5.7 5.7 0 01-.1 2.2 12.8 12.8 0 01-.7 2.1 14.5 14.5 0 01-2.3 3.8 9.7 9.7 0 01-1.6 1.5 4 4 0 01-2.1 1 1.8 1.8 0 01-1.3-.5 2.4 2.4 0 01-.7-1 3.4 3.4 0 01.1-2.3 5.9 5.9 0 011.2-2 3 3 0 011.8-1 3.6 3.6 0 00-1.5 1.4 7.7 7.7 0 00-.9 1.8 2.9 2.9 0 000 1.8 1.7 1.7 0 00.6.7 1.1 1.1 0 00.7.3 3.2 3.2 0 001.7-.8 9.2 9.2 0 001.4-1.5 14.7 14.7 0 002-3.5 12.3 12.3 0 00.7-2 5.1 5.1 0 00.2-1.9c-.2-1.1-1.5-2-2.7-2.5a30 30 0 00-8.3-1.8"/><path fill="#dd6f54" d="M245 220.7a9.6 9.6 0 00-3.3.1 5 5 0 00-1.4.6 2.7 2.7 0 00-1 1 7.6 7.6 0 00-.3 3 28 28 0 00.3 3.4l.7 3.3a10.6 10.6 0 01.2 1.7 13.7 13.7 0 01-.2 1.7 25.7 25.7 0 01-2 6.6v-.1a18.4 18.4 0 00-.2 2.7 25.2 25.2 0 000 2.7.4.4 0 01-.3.5 11.4 11.4 0 01-3.5.2 11 11 0 01-3.3-.9 10.5 10.5 0 01-3-1.8 13.7 13.7 0 01-2.2-2.7.5.5 0 010-.1l-3.2-18 4 17.9v-.2a12.2 12.2 0 002 2.4 9.3 9.3 0 002.7 1.8 9.8 9.8 0 003.1.7 10.5 10.5 0 003.2-.1l-.4.5a25 25 0 010-3 17.6 17.6 0 01.3-2.8 24.6 24.6 0 001.9-6.4 15.4 15.4 0 00.1-1.6 11.6 11.6 0 00-.2-1.5l-.6-3.3a27.1 27.1 0 01-.4-3.4 8.2 8.2 0 01.5-3.5 3.8 3.8 0 011.2-1.5 6 6 0 011.7-.6 10.3 10.3 0 013.5-.2.5.5 0 110 1z"/><path fill="#20c4f4" d="M330.7 202.9l-3-2s-7.3 6-10.8-.2l11.8-5.9 7.8 8.4z"/><path fill="none" d="M316.9 194.8h19.7v8.8h-19.7z"/><path fill="#20c4f4" d="M339 242.6s-8-3.8-7-7.4 3.5-9.3 1.5-10 .2 6-2.8 6.3-7.3-10.9-7.3-10.9l15-9 .6 31"/><path fill="none" d="M323.4 211.5h16.9v31h-16.9z"/><path fill="#f8a084" d="M348.6 245.1s7.8-35.8 5-38.4-17.8-17.6-20.8-17.4-16.1 9-15.4 11 7.4 2.3 12.4-3a20.4 20.4 0 016 4.8s-9.2 1.3-11.5 3.6a3.7 3.7 0 00-.9 4.5s-2.9 3.2-.9 5.8c.6.8 1 1 .8 1.6a8 8 0 00.6 5c1.5 2.6 3.8 6 6 6a2.9 2.9 0 00.7-3.2c-.5-2.3-1-2.6-1-2.6s3.4-.5 5.2.3 2.2 3.8 1 9-.9 7.6.5 10.7a15.1 15.1 0 01.8 7.2s8.6 1 11.5-5"/><path fill="#f68d6f" d="M334.8 214.3s-10.5 0-11.7 3.8 4.3 11.3 6.7 10.5 1-4.2.1-5.6c0 0 4.6-1 5.9 2.4s-1 8.2-1 11a17.6 17.6 0 002 8 30.1 30.1 0 01.3 5.7s8.2 1.2 11.6-5c0 0-8.1 4-9.2 0s-1.6-14.4-1.1-18-.7-5.3-2.6-5.9-9-1-8.9.8 3.1 4.7 2.7 5.8-4.7-3.2-5.6-6.5 0-3.5 1.4-4.6 7.7-2.3 9.5-2.4M323.8 210.8a3.7 3.7 0 01.3-5.4c2.8-2.6 11.7-3.3 11.7-3.3s-10.6 2.3-11.6 4.4a3.1 3.1 0 00.3 3.4z"/><path fill="#f68d6f" d="M318.8 198s-1.1 1.7 0 2 6.6-.4 8.8-2.7 2.2-2.9 2.2-2.9a48 48 0 004.3 3.5c3.4 2.5 4 4.9 4 4.9l-2.3-.7s-4.4-4-6-4.8c0 0-4.5 5.3-10.6 4.2 0 0-3.8-.6-.4-3.4"/><path fill="#fab49b" d="M334.2 215.8s-7.8.8-7.6 2.1 8.8 1.8 10.8 1.9 2.2 5.9 3 5 1.5-7 .5-9c-.7-1.3-6.7 0-6.7 0M334.4 208.6s-9 1-9.4 3.1 7.2.6 9.8.7 4.3 1.7 4.8 1.1 2.9-3.3 2.2-3.8-6.9-1.2-7.4-1.1M337.3 203.7a6.2 6.2 0 00-2.2 0c-2.7.7-9.7 2.4-9.8 3.4-.1 1.2 7.7-.7 10-.4s3.3 1.4 4.3.8c4.8-3 1.2-3.4-2.3-3.8"/><path fill="#fab49b" d="M333.7 190.8s-3 .7-1.2 3.6 6.7 5 8.4 8.8 9.5 7.1 10.7 5.4-13-16.8-17.9-17.8"/><path fill="#fab49b" d="M339.7 201.2s2.5 3.2-2.2 3.4l1.4 2.8s1.6 2 .5 3.4l-1.9 2.2s2.7.7 2.3 4-.7 5.4.2 8.3 3 8 6.4 8c0 0 1.9 1 0 2.6-5 4.6-6.9 8.3-4.5 8.5 6.7.7 6.1-2.7 8.2-12.2s4.2-24-.7-27.7a15.6 15.6 0 00-9.7-3.3"/><path fill="#dd6f54" d="M330 196.5a6 6 0 01-2.3 3.2 11.3 11.3 0 01-3.6 1.8 12 12 0 01-3.9.5 5.3 5.3 0 01-2-.4 2.9 2.9 0 01-.9-.7 1.3 1.3 0 01-.3-.6 2 2 0 010-.3 1.6 1.6 0 01.1-.3 5 5 0 011.3-1.7l1.5-1.2 3-2.5a28.8 28.8 0 016.5-4.1l1.9-.8.9-.3h.5a.8.8 0 01.1 0h.2a1.9 1.9 0 01.3 0 16 16 0 013.3 2l6 5 5.6 5.3 2.8 2.6a31.9 31.9 0 012.7 2.8 33.4 33.4 0 00-2.8-2.7l-2.9-2.6-5.8-5c-2-1.7-3.9-3.4-6-5a15.8 15.8 0 00-3.2-2h-.3l-.5.2-.8.3-1.8.8a29 29 0 00-6.4 4l-3 2.5-1.4 1.3a4.5 4.5 0 00-1.1 1.3.4.4 0 000 .5 2.1 2.1 0 00.7.5 4.8 4.8 0 001.8.3 11.8 11.8 0 007-2.1 12.7 12.7 0 002.7-2.6"/><path fill="#dd6f54" d="M330 197c1.1.7 2 1.6 3 2.4l3 2.6a.3.3 0 01-.1.4l-4.4.7a29.9 29.9 0 00-4.2 1.1 7.6 7.6 0 00-3.4 2.2 2.4 2.4 0 00-.3.3v.5a5.9 5.9 0 00-.2 1 3.8 3.8 0 00.4 1.9.5.5 0 01-.7.4 4.1 4.1 0 01-.6-2.3 7.7 7.7 0 010-1.2l.1-.3a2.5 2.5 0 01.2-.3 3.4 3.4 0 01.3-.6 8.3 8.3 0 014-2.3 39 39 0 018.7-1.6l-.1.4-3-2.3-3-2.3a.5.5 0 01-.2-.6.5.5 0 01.6-.1"/><path fill="#dd6f54" d="M335.8 207.4l-3.8.5a33 33 0 00-3.7.9 16.8 16.8 0 00-3.5 1.4 3.8 3.8 0 00-2.1 2.4v.1a4.4 4.4 0 00-.2 1.2 5.5 5.5 0 000 1.2 4.2 4.2 0 00.5 1.2 5.7 5.7 0 00.7 1 .5.5 0 01-.1.7.5.5 0 01-.6 0 5 5 0 01-1.6-2.6 5.3 5.3 0 01-.1-1.5 5.4 5.4 0 01.3-1.6v.1a3.6 3.6 0 011-2 7.4 7.4 0 011.8-1 16 16 0 013.7-1.3 36.4 36.4 0 017.7-.7"/><path fill="#dd6f54" d="M334.4 214.3a29.8 29.8 0 00-8.2 1.7c-1.3.6-2.5 1.4-2.8 2.6a5.1 5.1 0 00.2 1.9 11.7 11.7 0 00.6 2 14.8 14.8 0 002.1 3.5 8.8 8.8 0 001.5 1.4 3.1 3.1 0 001.6.8 1 1 0 00.8-.3 1.6 1.6 0 00.5-.6 2.8 2.8 0 000-1.9 7.1 7.1 0 00-1-1.8 3.6 3.6 0 00-1.4-1.4 3.1 3.1 0 011.8 1.1 5.9 5.9 0 011.1 2 3.4 3.4 0 01.2 2.2 2.5 2.5 0 01-.8 1 1.9 1.9 0 01-1.2.5 4 4 0 01-2.2-1 10.6 10.6 0 01-1.6-1.5 15 15 0 01-2.2-3.7 12.5 12.5 0 01-.7-2.1 5.5 5.5 0 01-.1-2.3 3.5 3.5 0 011.3-2 7.6 7.6 0 012-1 23.9 23.9 0 018.5-1.2"/><path fill="#dd6f54" d="M329.5 222.4a10.3 10.3 0 013.5.1 6 6 0 011.7.7 3.6 3.6 0 011.3 1.4 8 8 0 01.5 3.5 28.9 28.9 0 01-.4 3.4l-.7 3.3a10.5 10.5 0 00-.2 1.6 13.2 13.2 0 00.2 1.6 24.2 24.2 0 001.9 6.3 19 19 0 01.3 3 22.8 22.8 0 010 2.8l-.4-.5a10.9 10.9 0 003.2.2 10 10 0 003-.8 9.5 9.5 0 002.8-1.7 12.3 12.3 0 002-2.5v.2l4-17.9-3 18a.3.3 0 01-.1.2 13.1 13.1 0 01-2.3 2.7 10.6 10.6 0 01-3 1.8 11 11 0 01-3.3.9 11.1 11.1 0 01-3.5-.2.4.4 0 01-.3-.5 21.2 21.2 0 000-2.7 17.2 17.2 0 00-.2-2.7 25 25 0 01-2-6.5 15.9 15.9 0 01-.2-1.7 10.3 10.3 0 01.3-1.7l.6-3.3a28 28 0 00.4-3.3 7.3 7.3 0 00-.4-3.1 2.7 2.7 0 00-1-1 5.2 5.2 0 00-1.4-.6 9.6 9.6 0 00-3.1-.1.4.4 0 01-.5-.4.5.5 0 01.4-.5z"/><path fill="#f5a4c7" d="M195.4 287.3s27-43.5 29.3-50.8c0 0 3.5 4.5 13 5.4 0 0 14.9 39.8 15.4 45.4zM377.4 287.7S355.6 249 350 240c0 0-3.6 4.4-13 5.4l-10.3 42z"/><path fill="#490000" d="M300 122.9c-1.5 1-2.4 3-5.3 7.5s-10.3 3.7-10.3 3.7c-8.5.2-11.2-4.5-12.4-7.2a9.3 9.3 0 00-3.4-4c8.3 1.1 14.3-.8 21.6 0l2.9.2c5.1.3 6.9-.2 6.9-.2"/><path fill="#5e0000" d="M300 122.9c-1.5 1-2.4 3-5.3 7.5s-10.3 3.7-10.3 3.7c-8.5.2-11.2-4.5-12.4-7.2a9.3 9.3 0 00-3.4-4 44.5 44.5 0 018 6c3.7 3.4 14.4.2 16.5-5.8 5.1.3 6.9-.3 6.9-.3"/><path fill="#fff" d="M273 123.2s-.6 2.5 11 2.5h1s10 .5 11.2-2.8l-10.4-.8z"/><path fill="#ef4130" d="M294.1 131.1a4.6 4.6 0 01-.5.7c-.8 1-3 2.8-7.1 2.7a25 25 0 01-8.7-1.8 23 23 0 01-2.5-1.1s3.7-3 10-1.1a11.2 11.2 0 018.9.6"/><path fill="#d93b2b" d="M294.1 131.1l-.5.7c-3-1.7-7-.6-7-.6s1.8 1.7 1.5 2.3-.8-1.4-3.8-2.2c-2.6-.6-5.6 1-6.5 1.4a23 23 0 01-2.5-1.1s3.7-3 10-1.1a11.2 11.2 0 018.9.6"/><path fill="#f68d6f" d="M268.5 122.9a28.2 28.2 0 007.7-.6l5.2-1.3a15 15 0 015.8-.2c1.8.3 4.4.8 7.4 1.6a25.7 25.7 0 006 .3s-4.7 1.3-15 .5a15 15 0 00-2 0l-3.9.2a111 111 0 01-11.2-.5M272.7 128.4a15.3 15.3 0 004.3 6 12.3 12.3 0 0015.1.4 11.4 11.4 0 004.5-7.3s-2.9 6.6-12.2 6.6c0 0-8.4-.6-11.7-5.7"/><path fill="#f8c1d9" d="M224.7 236.5l-2.5 5.6a39.1 39.1 0 0013 3.6c6.5.5 13.6 41.6 13.6 41.6h4.3s-.1-1.7-.7-4.5c-.6-3-1.7-7.4-3-12.2a119 119 0 00-11.7-28.7s-10.3-2.8-13-5.4M349.9 239.5l2.8 6a41.8 41.8 0 01-12.7 3.2c-4.2.3-8 15.6-10.6 26.9-1.4 6.4-2.8 11.7-2.8 11.7h-4.4s10-37.5 14.6-42.4c0 0 10.4-2.7 13-5.3"/><path fill="#f067a6" d="M195.3 286.6l29-50.3a.5.5 0 01.6-.2 140.2 140.2 0 0010.2 4.7 24.4 24.4 0 003.5 1.1.5.5 0 01.4.3q4.8 10.9 8.6 22.1c1.2 3.7 2.4 7.5 3.4 11.4a79.5 79.5 0 012.1 11.6 78.8 78.8 0 00-2.4-11.6c-1-3.8-2.2-7.5-3.6-11.2q-4-11.2-9-21.9l.4.3a27.4 27.4 0 01-3.7-1.2l-3.5-1.4c-2.3-1-4.6-2.2-6.8-3.3l.6-.2-29 50.3a.5.5 0 01-.8-.5M376.9 287.6L350 239.8l.7.2a169 169 0 01-10.8 4.6 31 31 0 01-3.8 1.2l.3-.3a287.7 287.7 0 00-11.5 31 300 300 0 0110.6-31.4.5.5 0 01.3-.3 31.5 31.5 0 003.7-1.1 92.9 92.9 0 0010.7-4.6.5.5 0 01.7.2l26.8 47.8a.5.5 0 11-.9.5"/><path fill="#ed1846" fill-rule="evenodd" d="M288.8 171.7l17.9 17.9a2.8 2.8 0 010 4l-18 17.8a2.8 2.8 0 01-3.9 0L267 193.5a2.8 2.8 0 010-4l17.9-17.8a2.8 2.8 0 014 0"/><path fill="#fff" fill-rule="evenodd" d="M289 171.5l17.9 17.9a3.1 3.1 0 010 4.3l-17.9 18a3.1 3.1 0 01-4.4 0l-17.9-18a3.1 3.1 0 010-4.3l18-18a3.1 3.1 0 014.3 0m-.4.5a2.5 2.5 0 00-3.5 0l-18 17.9a2.5 2.5 0 000 3.5l18 17.9a2.5 2.5 0 003.5 0l17.8-18a2.5 2.5 0 000-3.4z"/><path fill="#fff" d="M285 200.4a1.6 1.6 0 011.4.4l1.2 1.3c-1 2.2-3.2 1.8-5.3 1.3a14.8 14.8 0 00-2-.3c-1.3 0-2.2.3-2.5 1.7l.5.5a1.6 1.6 0 011.9-1.6 14 14 0 012 .3c2.3.5 4.8 1 5.8-1.5.6.3 1.3.2 2.3-1a8.2 8.2 0 001.7-4.6 10.8 10.8 0 00-.3-3.2 6.5 6.5 0 005 1.5.3.3 0 00.2-.3.3.3 0 00-.3-.3 6.2 6.2 0 01-4.8-1.6l3.8-3.8c.2-.3.3-.3.2-.6l-1.8-6.9c0-.3-.2-.4-.4-.2l-1.7 1.7-1-4a.3.3 0 00-.5 0l-2 6.1a4.5 4.5 0 00-1.4-1.5l.4-4.3 1 .6a.3.3 0 00.4-.2l.2-1.3a.3.3 0 00-.4-.3l-1.1.3v-1a.3.3 0 00-.2-.3.3.3 0 00-.3.2l-.1 1-1-.5a.3.3 0 00-.4.2l-.2 1.3a.3.3 0 00.4.3l1.1-.4-.3 4.1a2.7 2.7 0 00-2.1 0l-.2-.2-2.7-2.4a.3.3 0 00-.5.2l1.2 3.9-3.5-1.1c-.2-.2-.6-.1-.5.2l1.2 5.4-2.9.8.3-1a.3.3 0 00-.4-.5l-1.2.3a.3.3 0 00-.2.5l.7 1-1 .2a.3.3 0 00-.2.3.3.3 0 00.3.3l1-.3-.2 1.1a.3.3 0 00.4.4l1.2-.3a.3.3 0 00.2-.5l-.7-.9 2.9-.8.5 2.5c0 .3.2.4.5.4l5.6 1.5v.2a.9.9 0 010 .1l-.2.6a6.8 6.8 0 01-.8 1.2c-.8 1-1.6 2.1-1 3.7a.5.5 0 00.3.2.7.7 0 00.4 0 .9.9 0 01.2 0m-2-12l-3 1-1.2-5 3.7 1.2a3.7 3.7 0 00.6 2.8m-3 1.5l3.4-1a3.6 3.6 0 002 1.2l.2 1.5.4 2.2-5.5-1.4zm6.6 3.6c0-1.2 1.2-1.9 2.7-2.7l.6-.3a11.7 11.7 0 011.4 6.3 7.5 7.5 0 01-1.5 4.3c-.9 1-1.4 1-1.8.6-1-.9-1.7-2.4-3.4-1.8-.4-1.2.3-2.1 1-3a3.8 3.8 0 001.1-2.3v-1m3.7-3.4c1.8-1 3-1.7 3-4.5a.3.3 0 00-.3-.3.3.3 0 00-.3.3c0 2.5-1 3-2.8 4a8 8 0 00-1.2-1.5 3.8 3.8 0 00.1-1.3l4.6-4.6 1.7 6.3-3.8 4v-.2a14.8 14.8 0 00-1-2.2m-.8-.2c-1 .6-2.5 1.2-3.2 2.2l-.1-.6-.3-1.3a2.7 2.7 0 002.7-1.5 8.2 8.2 0 011 1.2m-7-5l-1-3.4 2.1 2a3 3 0 00-1 1.5m1.7 3.9c1.5-1.7-.4-2.5 1.2-4.2.6-.5 1.8-.3 2.5 1.1a2.8 2.8 0 01-.7 3.4 2.6 2.6 0 01-3-.3m4.4-2.8l1.8-6 .8 3.5z"/><path fill="#fff" d="M284.7 200a2 2 0 01-2.7-.9c-1.1-1.8-2.8-3.7-5.7-3.6a.3.3 0 00-.3.4.3.3 0 00.3.2c2.7 0 4.1 1.8 5.2 3.4a2.6 2.6 0 003.5 1z"/><path fill="#74489d" d="M208 85.3a30.7 30.7 0 00-5.2 27.2c4.5 16.1 20.6 27.3 20.6 27.3s-17.6-5-23.2-25.7c-4.4-16.6 7.7-28.8 7.7-28.8"/><path fill="#714897" d="M280.5 39.3s6.4-1.1 7.1 5.3l1.6-5.6-1.8-10-9-2.3zM349.4 142.3c.4-1-9 16-3 23s9.9 2 7 18.9c0 0 7.3-11.5 1-17.6s-11-8.4-5-24.3"/><path fill="#a788be" d="M369.2 145.6c1.8 2 12 14 10.3 29.4-2 16.8-15.4 13.5-19.8 22.8 0 0-.7-6.7 6.8-12.6s7.2-13.7 4.8-17.4c0 0 1-8.3-3.4-13.7s-11.9-10.8-10-24.3-.8-19.2-7-26.4c0 0 11 1.8 11.9 15.4s-1.2 19 6.3 26.6a1.8 1.8 0 01.2.2"/><path fill="#9474b4" d="M387.2 156.4c-2.4 6.8-4.5 6.5-7.2 6.2 0 0 5.1-1.2 5.4-7.6s-6.8-8.6-12.6-11.7-5.2-13.8-4.7-27-2.8-13.4-14.4-22.3a28.3 28.3 0 01-11.3-21.7l1.4-.5a28.4 28.4 0 001.5 6.2c5.8 15.1 22.8 18.1 26 28.8s-2.3 21.6 3.8 28.8 15 12.7 12.1 20.8"/><path fill="#74489d" d="M267.2 10.6s6-8 28.4-6.8 38.1 18.6 42.6 35.5-5 22.2 4.2 33l7.2 5.6c5.2 4 5.5 13-4 16.1 0 0 11.4.3 13-9.3 0 0 1.2-5.7-6.2-11-8.5-6-9.8-16.6-9-23.8s-2.8-31.5-30-44.6-47.1 2.5-49.6 3.9z"/><path fill="#623f99" d="M246.7 141.2a93.7 93.7 0 01-4.6-12.3 73.3 73.3 0 01-2.6-12.9c-.3-2.2-.3-4.4-.4-6.6l-.2-6.6-.2-13.1a1.1 1.1 0 112.3 0l-.4 13.1V116a72.3 72.3 0 002 12.9 93.2 93.2 0 004 12.4"/><path fill="#845ba6" d="M223.3 103.3s16.1-16.4 33.8-26.5 24.7-35.2 17.8-52.7c0 0 9.9-3.2 13.2 8.7s-.6 20.2 1.6 24.2 32.4 13.8 36.5 21 6.6 26.5 6 35.8 17-2.6 18.6-10.5S344.8 86 340 76c-4.5-9.2-9.5-31.4-9.5-31.4L302 10.4l-27.7 3.2L260 20l-7.8 10.6s5.2 8-1.5 17.4c-9 12.6-27 27-26.9 27.9l-.6 27.4"/><path fill="#9474b4" d="M250.7 84h-.1q-3.9 2.1-7 4.2c-16.6 11-19.2 20-19.2 20s-2-14.2 20.1-26.5 31-28.5 30.9-44.5-9.2-20.7-18.5-21.6-22.7 10.2-28.2 26.5 2 14.6-12 29.5-20.4 23.2-19 41.3 22.5 32.5 22.5 32.5-12.5 15.8-12.8 29.6a45.7 45.7 0 005.7 22.4 36.7 36.7 0 009.3 10.4s-10 1-18.4-14 2.1-38.8 9.8-46.8c0 0-15-9.5-17.5-23.8 0 0-2.1 6.3 2.4 11.4s10 13.5 4.2 18.7c0 0 0-8.8-4.7-11.7s-13.1-19.9-7.5-41.8 26.8-31.4 31.2-43.3.9-21.9 14-35.2 23-13.4 27.9-12.2c0 0 14.8 3.2 16.4 26.5s-6.6 35.7-29.5 48.3"/><path fill="#74489d" d="M222.2 98s5-15.3 18.6-21.3 31.4-18.3 28.4-38.3-14-18.4-14-18.4 12.7 13.6 6.6 30.2-40 23.7-39.6 47.8"/><path fill="#77499d" d="M233.8 55.5s1-24.3 15.2-33c0 0-2.6 10.3-15.2 33"/><path fill="#74489d" d="M289.2 15.6s18.3 2.3 22 14.2 3.3 25.6 17.8 29c0 0-8.4-6-10.3-22.8s-14.5-22.2-29.5-20.4"/><path fill="#9474b4" d="M295.6 24.8s7.3 2.8 5.6 16.4c-1.4 12.5 3.6 20.2 17 25s18.6 4.5 19 15 1.7 12.8 7.3 15c0 0-4.7-5-3.7-16.4S327.1 65 315 59s-10-15.1-10.1-22c-.1-11.1-9.3-12.2-9.3-12.2"/><path fill="#623f99" d="M291.8 24a8.7 8.7 0 015.8 2 10.6 10.6 0 013.3 5.3l.4 1.6.1 1.5a10.5 10.5 0 01.2 1.6V44a38.5 38.5 0 00.5 6.1 15.8 15.8 0 006.1 10.3 27.1 27.1 0 002.6 1.7l1.3.8 1.4.7A102.4 102.4 0 00325 68l6 2.1a15 15 0 012.8 1.5 7.5 7.5 0 012.3 2.5 15.6 15.6 0 011.6 6.3l.3 3 .4 3.1a29.2 29.2 0 001.8 5.9 8.7 8.7 0 001.6 2.4 3.6 3.6 0 002.6 1.3 3.4 3.4 0 01-3.1-.7 7.4 7.4 0 01-2.1-2.5 20.7 20.7 0 01-2-6.1l-.5-3.2-.3-3.1a14.4 14.4 0 00-1.4-5.8c-.9-1.7-2.7-2.7-4.6-3.5s-3.9-1.4-5.8-2.1a99.7 99.7 0 01-11.7-4.7l-1.4-.7-1.4-.8a31.5 31.5 0 01-2.6-1.8 18.4 18.4 0 01-4.2-4.9 17.3 17.3 0 01-2-6 37.2 37.2 0 01-.4-6.3c-.1-4.2.6-8.4-.4-12.5a10.3 10.3 0 00-3-5.3 8.6 8.6 0 00-5.8-2"/><path fill="#a788be" d="M339.6 105.5s8.4 1.1 2.3 26.6-4 45.8 9 56.8c0 0-14-19.5-6.9-43.5 6-20.5 5.6-37.1-4.4-40"/><path fill="#74489d" d="M276.4 12.9c-1.2.5 24.9-7.3 38.4 6.1 12.6 12.5 8.3 19 13 30.8 0 0 1.9 6.8 8.6 9.1 0 0-8.2-8-7.4-19.2.9-13-13.3-43.8-52.6-26.8"/><path fill="#9474b4" d="M279.3 28.5s8.9.7 7.2 9.2-5.1 19.6 8 26.4 29.8 7 33 26.4c3.7 22.3-.1 51.8-.1 51.8h3.8a3.8 3.8 0 014 4s3-53-2-64.2-12-10-27-17.6-15-13.3-14.7-26.9-8.2-15.7-14.2-15.4z"/><path fill="#623f99" d="M279.3 27.8a9 9 0 014.3 1.3 7.5 7.5 0 013 3.4 10.7 10.7 0 01.7 4.4 34 34 0 01-.4 4.2c-.3 2.7-.8 5.4-.9 8.1a16.9 16.9 0 001.3 7.7 11.2 11.2 0 005.4 5.3 76.7 76.7 0 007.5 3.1c5.2 2 10.5 3.6 15.5 6.3a27.7 27.7 0 016.8 5 15.2 15.2 0 014 7.6 143.2 143.2 0 012.3 16.4 161.4 161.4 0 01-1 33.2 194.4 194.4 0 00-.2-33 141.8 141.8 0 00-2.5-16.3 13.8 13.8 0 00-3.7-6.8 26.1 26.1 0 00-6.5-4.7c-4.8-2.5-10-4.2-15.3-6a70.5 70.5 0 01-7.7-3.2 13 13 0 01-6.2-6.2 18.6 18.6 0 01-1.4-8.4 70.2 70.2 0 011-8.3 33.2 33.2 0 00.5-4 9.3 9.3 0 00-.6-3.8 6 6 0 00-2.4-2.8 7.6 7.6 0 00-3.5-1.1.7.7 0 010-1.4M207.8 170.6a55 55 0 00.6 10.4 52 52 0 002.5 10 37.5 37.5 0 004.7 9 29.8 29.8 0 007.2 7.2.7.7 0 01-.5 1.3 29.5 29.5 0 01-8.8-3.6 27.2 27.2 0 01-7.2-6.2 24.5 24.5 0 01-4.4-8.5 29 29 0 01-1-4.7l-.3-4.7a52.3 52.3 0 01.6-9.3 44.9 44.9 0 012.3-9.1 43.4 43.4 0 014.2-8.4 46.5 46.5 0 016-7.2v.5a52.4 52.4 0 01-6.4-5.1 50.6 50.6 0 01-5.5-6 36.8 36.8 0 01-4.3-7 27.2 27.2 0 01-2.3-7.9l.9.1a13.2 13.2 0 00.7 8.2 15.3 15.3 0 002.1 3.7c.9 1.1 1.9 2.2 2.7 3.4a22.6 22.6 0 014.2 7.9 11 11 0 01.1 4.6 12.6 12.6 0 01-1.7 4.3.7.7 0 01-1 .2.7.7 0 01-.3-.6c0-3.7-1.2-7.8-4-10.3a9.5 9.5 0 00-1.2-.8l-1.2-.8a10.3 10.3 0 01-2.2-2.1 22.6 22.6 0 01-3-5.3 46.1 46.1 0 01-3-11.6 61.8 61.8 0 01-.4-11.9 66.5 66.5 0 011.8-11.8 45.8 45.8 0 014.3-11.2c3.8-7 9.5-13 15.4-18.2l4.4-4a37 37 0 004-4.1 10.6 10.6 0 001.4-2.3 23.9 23.9 0 001-2.7l1.5-5.7a99.4 99.4 0 017.6-22.7 41.5 41.5 0 017-9.9 30.2 30.2 0 0110.1-6.8 33.5 33.5 0 0111.9-2.5 21.3 21.3 0 016 .6 10.7 10.7 0 015.2 3 11.6 11.6 0 00-5.3-2 23.5 23.5 0 00-5.8 0 38.7 38.7 0 00-11 3 30.3 30.3 0 00-9.4 6.4 39.1 39.1 0 00-6.7 9.3c-3.5 7-5.5 14.5-7.5 22.2l-1.6 5.8a24.9 24.9 0 01-1 2.8 12.8 12.8 0 01-1.7 2.8 38 38 0 01-4.3 4.3l-4.5 3.9a98.5 98.5 0 00-8.4 8.1 51.8 51.8 0 00-7 9.4 44 44 0 00-4.3 10.8 62.8 62.8 0 00-2 11.6 61.2 61.2 0 00.3 11.7 45 45 0 002.8 11.4 21.3 21.3 0 002.9 5 9.6 9.6 0 002 2l1.2.7a11 11 0 011.3 1 12.7 12.7 0 013.5 5 18.2 18.2 0 011.3 6l-1.3-.5a11 11 0 001.6-3.7 9.6 9.6 0 000-4 21.6 21.6 0 00-3.9-7.6l-2.6-3.4a16.2 16.2 0 01-2.3-4 14.1 14.1 0 01-.6-8.8.4.4 0 01.5-.3.4.4 0 01.3.3 26.2 26.2 0 002.2 7.7 35.6 35.6 0 004.2 6.8 52.5 52.5 0 0011.6 11 .3.3 0 01.1.5 46 46 0 00-9.1 15.7 51.3 51.3 0 00-2.4 17.9c0 1.5 0 3 .3 4.5a26.7 26.7 0 00.9 4.3 22.6 22.6 0 001.6 4.2 23.8 23.8 0 002.4 3.7 26.2 26.2 0 006.6 6 29.6 29.6 0 008.1 3.6l-.5 1.3a31 31 0 01-7.3-7.7 38.9 38.9 0 01-4.5-9.5 53.2 53.2 0 01-2.1-10.2 55.5 55.5 0 01-.3-10.4"/><path fill="#623f99" d="M250.8 27.6a25.3 25.3 0 012.6 10.5 22.5 22.5 0 01-2.3 10.7l-1.4 2.4-1.6 2.3a45.7 45.7 0 01-4 3.8l-8 7.3A114.5 114.5 0 00221.6 80a40.1 40.1 0 00-5.2 9.2 23.4 23.4 0 00-1.3 5 24.9 24.9 0 00-.1 5.2 34.5 34.5 0 002.1 10.2 38.6 38.6 0 005 9.3 104 104 0 006.8 8.3 20 20 0 013.3 4.4 14.7 14.7 0 011.6 5.4 14 14 0 01-.5 5.7 13.7 13.7 0 01-1.1 2.6l-1.5 2.3a85.4 85.4 0 00-5.3 9.3 31.8 31.8 0 00-2.9 10.1 29 29 0 001 10.6 25.6 25.6 0 01-1.8-10.7 26.9 26.9 0 01.8-5.4 36 36 0 011.8-5.2 71.2 71.2 0 015.2-9.5l1.4-2.3a12 12 0 001-2.3 12.6 12.6 0 00.5-5 13.2 13.2 0 00-1.5-4.9 18.3 18.3 0 00-3.1-4 101.8 101.8 0 01-7-8.4 40.3 40.3 0 01-5.3-9.6 35.9 35.9 0 01-2.3-10.8 24.1 24.1 0 01.2-5.5 25 25 0 011.5-5.4 41.7 41.7 0 015.4-9.5 116.5 116.5 0 0115-15.7l8-7.2a47.3 47.3 0 003.8-3.8l1.6-2 1.3-2.3a26.9 26.9 0 001-20.6"/><path fill="#623f99" d="M276.1 20a53.1 53.1 0 014.7 27 36.7 36.7 0 01-1.4 6.9 24.6 24.6 0 01-1.2 3.3 33.9 33.9 0 01-1.5 3.1A51.7 51.7 0 01269 72a50.4 50.4 0 01-5.1 4.8 64 64 0 01-5.7 4c-4 2.5-8.1 4.5-12.1 6.7a60.1 60.1 0 00-11 8 64 64 0 00-9.2 10.2 55.9 55.9 0 018.5-10.9 56.8 56.8 0 0111-8.6l6-3.3 5.8-3.5a53 53 0 0010.5-8.6 54 54 0 007.6-11.1l1.5-3a27.2 27.2 0 001.2-3.3 35 35 0 001.6-6.5 49.5 49.5 0 00-.1-13.6c-.1-1.2-.4-2.3-.6-3.4l-.7-3.4a58 58 0 00-2-6.5M338.5 57.5a35.4 35.4 0 00.7 5.8 22.4 22.4 0 001.8 5.3 13 13 0 003.3 4.4l4.6 3.5a14.4 14.4 0 014.4 4.2 8.1 8.1 0 011 3 13.2 13.2 0 010 3 8.3 8.3 0 01-1 3 7.2 7.2 0 01-2.1 2.4 17.3 17.3 0 01-5.6 2.2v-.7a17.9 17.9 0 007.2-1.9 10.8 10.8 0 003-2.2 9.3 9.3 0 001.1-1.4l.5-.8a3.7 3.7 0 00.4-.9 10 10 0 00.7-3.6 6.3 6.3 0 00-1-3.3c-1.4-2-3.6-3.5-5.6-5.2a23.2 23.2 0 01-5.3-6A20.6 20.6 0 01344 61c-.8-5.2-1.1-10.4-1.8-15.5a64.4 64.4 0 00-3.5-15 39.6 39.6 0 00-8-12.9 54.5 54.5 0 00-5.7-5 60.2 60.2 0 00-6.5-4.3 91 91 0 00-14-6.4 80.4 80.4 0 0114.4 5.8 57.8 57.8 0 016.6 4.1 47.4 47.4 0 016 5.1 40.3 40.3 0 018.3 13.2 66 66 0 013.6 15.2c.7 5.2 1 10.4 1.9 15.4a19.9 19.9 0 002.5 7.1 22 22 0 005 5.7l3 2.4a14.4 14.4 0 012.7 3 7.3 7.3 0 011.2 4 11 11 0 01-.9 4 4.5 4.5 0 01-.4 1l-.5.9a11.5 11.5 0 01-1.3 1.5 11.8 11.8 0 01-3.3 2.4 16.7 16.7 0 01-3.7 1.3 19.9 19.9 0 01-4 .5.4.4 0 01-.4-.4.4.4 0 01.3-.4 18 18 0 005.1-2.4 6.2 6.2 0 002.5-4.6 8.8 8.8 0 00-1-5.2 13.6 13.6 0 00-4-3.7 75.2 75.2 0 01-4.6-3.6 13 13 0 01-3.6-5 21.9 21.9 0 01-1.3-11.6M356 91.6a46.8 46.8 0 019.2 6.1 28.8 28.8 0 014 4 17.3 17.3 0 012.8 5 10 10 0 01.6 2.7v8.3a75 75 0 00.4 10.9 11.4 11.4 0 001.6 4.8 18.7 18.7 0 001.7 2l2 1.8a59.7 59.7 0 017.6 8 16 16 0 012.5 5.3 13.1 13.1 0 01.1 5.8 9.4 9.4 0 01-2.9 5 8.3 8.3 0 01-5.5 2 .7.7 0 01-.7-.7.7.7 0 01.3-.6 10 10 0 002.9-3.5 5.1 5.1 0 000-4.3 3.3 3.3 0 00-.2-.5 1.8 1.8 0 00-.2-.4 3.7 3.7 0 00-.8-.6 15.2 15.2 0 00-2.1-1c-1.6-.6-3.2-1.2-4.7-2a23.1 23.1 0 01-4.4-2.6 18.2 18.2 0 01-3.7-3.7 22.8 22.8 0 01-3.7-9.5l-.4-7.5-.1-7.5a14.9 14.9 0 00-1.4-7.1 12.2 12.2 0 00-4.5-5.8 9.3 9.3 0 013 2.4 15.8 15.8 0 012 3.2 20 20 0 011.2 3.5 13.3 13.3 0 01.4 1.9 8 8 0 010 1v.9l.5 7.4.5 7.5v-.1a21.5 21.5 0 003.6 9 19.1 19.1 0 007.6 5.8c1.5.7 3 1.2 4.6 1.8a15.5 15.5 0 012.4 1.1 4.6 4.6 0 011.1 1 2.9 2.9 0 01.4.6 4.5 4.5 0 01.3.7 6.6 6.6 0 01-.1 5.4 11.3 11.3 0 01-3.4 4l-.4-1.2a6.8 6.8 0 004.5-1.6 7.8 7.8 0 002.3-4.3 11.4 11.4 0 000-5.1 14.1 14.1 0 00-2.4-4.6 58.3 58.3 0 00-7.4-7.8 32.6 32.6 0 01-4-4.1 13.2 13.2 0 01-1.7-5.6 74.8 74.8 0 01-.2-11v-5.5-2.7a9.4 9.4 0 00-.4-2.5 22.9 22.9 0 00-6.1-8.7 61.8 61.8 0 00-8.6-6.7"/><path fill="#623f99" d="M358.2 117a11.3 11.3 0 01.5 3.5v3.5l-.6 6.8a24.3 24.3 0 002.3 13.1 26.2 26.2 0 003.8 5.5 36 36 0 002.4 2.4 19.6 19.6 0 012.3 2.6 16.2 16.2 0 012.9 6.5 19.4 19.4 0 01.1 7l-.2-.6a8.7 8.7 0 011.8 8.8 16.2 16.2 0 01-2 4.1 27.5 27.5 0 01-2.8 3.5 77.4 77.4 0 00-6 6.3 13.9 13.9 0 00-1.9 3.7 10.5 10.5 0 00-.4 4H359a2.6 2.6 0 01.1-.6l.2-.6a7 7 0 01.6-1 9.7 9.7 0 011.4-1.5 20 20 0 013.3-2.4 37.9 37.9 0 013.6-1.8l1.8-.9 1.6-1a16.2 16.2 0 005.3-5.5 19.6 19.6 0 002.3-7.3 32 32 0 000-7.9 47.3 47.3 0 00-1.7-7.7 36.2 36.2 0 00-3-7.2 24.3 24.3 0 00-4.8-6.3 24.6 24.6 0 015 6.2 36.8 36.8 0 013.2 7.2 47.6 47.6 0 011.8 7.8 32.7 32.7 0 01.3 8 20.3 20.3 0 01-2.3 7.7 17.1 17.1 0 01-5.4 6l-1.8 1-1.8 1a34.1 34.1 0 00-3.4 1.8 19 19 0 00-3 2.3 9.7 9.7 0 00-1.3 1.4 7 7 0 00-.4.7 2.6 2.6 0 00-.1.4 1.2 1.2 0 000 .2l-1.5.2a12 12 0 01.5-4.6 15 15 0 012.2-4 77.5 77.5 0 016-6.5 26.8 26.8 0 002.7-3.3 14.8 14.8 0 001.8-3.7 8.7 8.7 0 00.3-4 6.4 6.4 0 00-1.7-3.4.7.7 0 01-.2-.7 16.7 16.7 0 00-2.6-12.6 19 19 0 00-2.2-2.5 33.4 33.4 0 01-2.4-2.5 26.7 26.7 0 01-3.8-5.8 25 25 0 01-2.2-13.6l.8-6.8v-3.4a11.1 11.1 0 00-.3-3.3.2.2 0 01.1-.2.2.2 0 01.2.1"/><path fill="#623f99" d="M349.4 195.6a52.9 52.9 0 007.5-5.2 49.9 49.9 0 006.6-6.4 36.3 36.3 0 004.8-7.6 27.8 27.8 0 002.3-8.6.7.7 0 01.7-.7.7.7 0 01.7.8 28.8 28.8 0 01-2.7 9 37.4 37.4 0 01-5.3 7.6 50.9 50.9 0 01-6.8 6.2 53.8 53.8 0 01-7.8 5"/></g></g></svg>