<svg xmlns="http://www.w3.org/2000/svg" viewBox="0 0 328.5 38.6"><defs/><g data-name="Layer 2"><g fill="#4e2b8a" data-name="Layer 1"><path d="M31.6 20.8a.6.6 0 010 .5 1.3 1.3 0 01-.2.5 2 2 0 01-.4.4l-.5-.1a9.7 9.7 0 00-2.9 1.2c-.4.3-.7.5-.9.4-1.3.7-1.9.6-1.9-.3a6.3 6.3 0 00-.1-1.9 7.3 7.3 0 01-1.3 1.3 4.8 4.8 0 01-1.5 1 2.5 2.5 0 01-.6.2 2.5 2.5 0 00-.4 0H19.4a3.6 3.6 0 00-.7 0 2 2 0 01-.7-.2A3.5 3.5 0 0117 23a4 4 0 01-.7-1 4.8 4.8 0 01-.3-1.1l-.1-1a4.7 4.7 0 00-.3.6l-.4.9-.4.8-.7 1.2a6 6 0 01-.8 1 1.3 1.3 0 01-1 .6 4.5 4.5 0 01-2.3-.6A4.1 4.1 0 018.5 23a5.6 5.6 0 01-.8-1.8 8.4 8.4 0 01-.2-1.8v-1.3l.1-1.8.2-2v-1.8l.2-1.4v-3-.7a10 10 0 00-.3-1.2A5.3 5.3 0 007.3 5a1 1 0 00-1-.6 1.7 1.7 0 00-1 .4 5 5 0 00-1 1A10.5 10.5 0 003 8.2a20.3 20.3 0 00-.8 2.5 1.6 1.6 0 000 .6.4.4 0 00-.2.2.8.8 0 010 .2.8.8 0 010 .2v.4a1.8 1.8 0 000 .5V14a3.5 3.5 0 00.2 1.1 2.7 2.7 0 00.6 1 1.5 1.5 0 001.1.4 1.1 1.1 0 00.7-.2 3 3 0 00.5-.5l.4-.5a.5.5 0 01.4-.2.6.6 0 01.6.4 2 2 0 01.1.6 1.1 1.1 0 01-.2.7 1.3 1.3 0 01-.5.4 2.4 2.4 0 01-.6.2 4 4 0 01-.7 0 6.3 6.3 0 01-1.1 0 5.7 5.7 0 01-1.2-.4 3.8 3.8 0 01-1.1-.7 3.2 3.2 0 01-.8-1.1 3.3 3.3 0 00-.1-.5 2 2 0 01-.2-.6v-1.9A7.5 7.5 0 01.2 11a19.9 19.9 0 01.5-2 23.2 23.2 0 01.9-2.2 13.9 13.9 0 011.1-2 6.4 6.4 0 011.5-1.6 3 3 0 011.9-.6 2.5 2.5 0 011 .1 6.3 6.3 0 011 .6 5.2 5.2 0 011.2.9 5 5 0 01.8 1 7.5 7.5 0 01.9 2.7l.2 2.6v3.6l-.2 4.5V21a5.4 5.4 0 00.1 1 3.5 3.5 0 00.4.8.7.7 0 001 .1 1.7 1.7 0 00.5-.4l.2-.5a1 1 0 00.2-.3l.8-2a16.3 16.3 0 00.5-1.8l.4-1.7a18.8 18.8 0 00.4-3.3l.1-1.7V8v-.4a3 3 0 01-.2-.3V7a.5.5 0 01.3-.4 1.9 1.9 0 01.5-.3 3.4 3.4 0 01.6-.1 1.8 1.8 0 01.3 0 .2.2 0 00.2 0h.2a.7.7 0 00.4 0l1 .5a3.6 3.6 0 011 .6 1.7 1.7 0 00-.3.2.8.8 0 00-.2.3 8.5 8.5 0 00-.4 1.4 44.1 44.1 0 00-.3 3.5l-.1 1.7-.1 3.3v2.8a4.6 4.6 0 00.3 1 3 3 0 00.4 1 1 1 0 00.9.4h.5a2.7 2.7 0 001.2-1 5.4 5.4 0 00.8-2.4l.2-1c0-.6 0-1.4.2-2.2s.1-1.9.2-3l.2-3.2.1-3.4v-3a1 1 0 01.2-.9 1.2 1.2 0 011-.2h.3a2.3 2.3 0 01.3 0l.4.2a6.2 6.2 0 011.8 1.5 4.4 4.4 0 011 1.7.5.5 0 00-.4.2l-.1.3a9.8 9.8 0 00-.7 3c0 1 0 2-.2 3v4.7a23.6 23.6 0 00.3 4.5 6.8 6.8 0 011.5-.6 15.4 15.4 0 012.6-.5.5.5 0 01.2.2M26.3 22l.2.5.2-.1a3.6 3.6 0 01.6-.2 1 1 0 01.7.2 4.1 4.1 0 01-.2.7 1.5 1.5 0 01-.7.8l.4-.7a16.8 16.8 0 00.5 2l.5 1.3c.2.3.2.7.2 1a2.6 2.6 0 010 1 3.1 3.1 0 01-1 1.7 9.6 9.6 0 01-1.5 1 3 3 0 01-1 .3 4.9 4.9 0 01-.8.1 5 5 0 01-1.9-.3 4.5 4.5 0 01-1.3-1 1.8 1.8 0 01-.6-1.2 3.9 3.9 0 01.3-1.6 7 7 0 01.9-1.5 10.4 10.4 0 011.2-1.5 7.4 7.4 0 011.3-1zm-1.2 3a7.6 7.6 0 00-1.6 1.9 2.8 2.8 0 00-.3 1.6 2.2 2.2 0 00.1.5 1.8 1.8 0 00.3.6 1.6 1.6 0 00.4.4.6.6 0 00.6 0 3 3 0 001.4-2.1 3.7 3.7 0 00-.3-1.6l-.6-1.3"/><path d="M43.3 13.9a.6.6 0 01.5-.3.3.3 0 01.3.2 1.1 1.1 0 010 .4 4.3 4.3 0 01-.5 2 10 10 0 01-1 1.4 5 5 0 01-.6.7l-.8.6V20.1a6.3 6.3 0 01-.4 1.3 6.5 6.5 0 01-1 1.6 5.4 5.4 0 01-1.3 1.3 3.2 3.2 0 01-1.9.6 6 6 0 01-.8-.1l-.9-.2a8.4 8.4 0 01-.9-.3 4.5 4.5 0 01-.7-.3 5.7 5.7 0 01-1.6-1.2 5.3 5.3 0 01-1-1.4 5.7 5.7 0 01-.4-1.5 10.1 10.1 0 010-1.5 11.9 11.9 0 01.2-2.6 19.3 19.3 0 01.7-2.5 12.9 12.9 0 011-2.1 7.8 7.8 0 011-1.5 2.8 2.8 0 011.1-.7 3.8 3.8 0 011.2-.2 3 3 0 011.2.3 6.3 6.3 0 011.2.7 10 10 0 011.1 1l1.1 1a2.5 2.5 0 01.6 1.3l.3 1.7.1 1V17a4.2 4.2 0 001-1 6.1 6.1 0 00.5-.8 7.4 7.4 0 00.3-.8 2.1 2.1 0 01.3-.6m-4.3 3v-.6l-.1-1.1-.2-1.4a6.4 6.4 0 00-.4-1.3 3.3 3.3 0 00-.6-1 1.3 1.3 0 00-1-.4 1.8 1.8 0 00-1.1.4 4.2 4.2 0 00-1 1 5.8 5.8 0 00-.6 1.6 5.6 5.6 0 00-.3 1.6 2.9 2.9 0 00.6 2 2.9 2.9 0 002.2.7 4.5 4.5 0 001.8-.3c.5-.2.7-.4.7-.5zm-.2 3a4 4 0 01-1.3.3 8.6 8.6 0 01-1.4.2 7.1 7.1 0 01-1.6-.2 4.3 4.3 0 01-1.2-.5v.7a2.8 2.8 0 00.1.8 2.4 2.4 0 00.4.8 1.8 1.8 0 00.7.6 2.6 2.6 0 001.2.2 3.2 3.2 0 001.4-.3 3 3 0 001-.8 3.3 3.3 0 00.6-1 2.9 2.9 0 00.1-1"/><path d="M56 24.8a.5.5 0 01-.4.5 1.8 1.8 0 01-.7.1h-.7c-.2 0-.2 0-.2.2V31l-.1 2.8a10 10 0 01-.5 2.4 4.3 4.3 0 01-1 1.7 2.4 2.4 0 01-1.7.7l-2-.1a6.7 6.7 0 01-2-.5 3.5 3.5 0 01-1.4-1 2.8 2.8 0 01-.5-1.8 10.2 10.2 0 01.2-2.4 11.8 11.8 0 01.8-2.4 13.6 13.6 0 011.3-2.1 11.6 11.6 0 011.7-1.9l1-.8 1-.7v-1.5V22l-.4.9a7.3 7.3 0 01-.6 1 4.5 4.5 0 01-.8.8 1.7 1.7 0 01-1 .4 1.3 1.3 0 01-.6-.1 1.7 1.7 0 00-.6-.1 3.8 3.8 0 01-1.8-.6 3 3 0 01-1.1-1.2 6 6 0 01-.6-2 16.7 16.7 0 01-.1-2.4 26.7 26.7 0 01.2-3.4 13.9 13.9 0 01.7-3.2 6.6 6.6 0 011.5-2.4 3 3 0 012.3-.9 1.4 1.4 0 01.4.1l.5.2.6.3a4.4 4.4 0 00.4.1 10.7 10.7 0 011.5.4 3.8 3.8 0 011 .5 2.3 2.3 0 01.8.9 3 3 0 01.3 1.3 4.6 4.6 0 01-.1 1 6 6 0 00-.1 1.2.4.4 0 00.2.4 4.5 4.5 0 00.5.2 4.6 4.6 0 01.6.1.3.3 0 01.2.4.9.9 0 01-.2.3 2.3 2.3 0 00-.2.3 4.1 4.1 0 00-.2 1v1.3c0 .5 0 1-.2 1.4s0 1 0 1.4V24h.4a3.3 3.3 0 011 .2c.4.2.6.4.6.6M51 14a6 6 0 000-.9 3.6 3.6 0 00-.3-.9 2 2 0 00-.6-.7 1.4 1.4 0 00-1-.3 2.1 2.1 0 00-1.3.5 4.6 4.6 0 00-1.1 1.5 9.6 9.6 0 00-.8 2.3 15.6 15.6 0 00-.3 3.2v1.5a11.1 11.1 0 00.3 1.4 3 3 0 00.4 1 .9.9 0 00.8.5 2 2 0 001.4-.7 5.2 5.2 0 001-1.5 9.9 9.9 0 00.6-2 10.7 10.7 0 00.3-1.7 10.4 10.4 0 010-1.4 1.4 1.4 0 01.2-.4 1.3 1.3 0 00.3-.7 4.6 4.6 0 00.1-.7m-.2 12.2a6.6 6.6 0 00-1.6 1.6 12.8 12.8 0 00-1.4 2.2 14 14 0 00-1 2.4 8.6 8.6 0 00-.2 2.2 4.5 4.5 0 000 .8 3 3 0 00.3.7 1.6 1.6 0 00.5.7 1.3 1.3 0 00.8.2 1.6 1.6 0 001.3-.6 4.4 4.4 0 00.8-1.5 7.8 7.8 0 00.4-1.7l.1-1.4v-.3-.8V29zM68.4 17.9a6.7 6.7 0 01-.3 2A7 7 0 0167 22a6.2 6.2 0 01-2 1.7 5.8 5.8 0 01-2.8.6 5.5 5.5 0 01-2.5-.5 5 5 0 01-1.6-1.3 5.2 5.2 0 01-1-2 9.8 9.8 0 01-.3-2.5 14 14 0 01.3-2.8 10.1 10.1 0 011-2.9 12 12 0 011.6-2.3A3 3 0 0162 9a3.4 3.4 0 011.4.3 3.8 3.8 0 011.1.7 3.2 3.2 0 01.8 1 3.4 3.4 0 01.3 1.2v.6a7.2 7.2 0 01-.3 1.9 6.8 6.8 0 01-1 2A5.6 5.6 0 0163 18a3.6 3.6 0 01-2 .6h-.6a2 2 0 01-.5-.1v1a2.7 2.7 0 00.1.7 3.1 3.1 0 00.6 1 3.3 3.3 0 001 .7 2.9 2.9 0 001.4.4 3.8 3.8 0 001.9-.4 4 4 0 001.2-1 4.3 4.3 0 00.8-1.5 10.9 10.9 0 00.3-1.6l.3-.7.4-.2a.5.5 0 01.6.6zm-4.7-5.7a1.3 1.3 0 00-.2-.6.7.7 0 00-.7-.3 1.5 1.5 0 00-1.2.7 6.3 6.3 0 00-.8 1.6 12.8 12.8 0 00-.6 1.7 7.6 7.6 0 00-.1 1v.2a1.2 1.2 0 000 .5q.1.2.5.2h.2a1.9 1.9 0 001.3-.5 4.3 4.3 0 001-1.4 6.2 6.2 0 00.4-1.5 8.4 8.4 0 00.2-1.3z"/><path d="M83.2 17.7a6.8 6.8 0 01-.3 1.9 8.3 8.3 0 01-1 2.2 6.7 6.7 0 01-1.7 1.7 3.9 3.9 0 01-2.4.8 3 3 0 01-2.2-.8 5 5 0 01-1.2-2 8.5 8.5 0 01-.4-2l-.1-1.8v-1a48.1 48.1 0 01-3.7 2.5.2.2 0 000 .2.4.4 0 010 .2v3.7a1.2 1.2 0 01.1.4v.2a.3.3 0 01-.2.3 2 2 0 01-.4.1 3.5 3.5 0 01-.5 0h-.8a3.5 3.5 0 01-.8-.1 1.9 1.9 0 01-.6-.3.7.7 0 01-.3-.6 1.2 1.2 0 01.2-.5 1.7 1.7 0 00.1-.7V10.4a1 1 0 00-.1-.6.8.8 0 01-.1-.4c0-.2 0-.3.2-.4a2.2 2.2 0 01.6-.1 5.3 5.3 0 01.7 0h.4a5.8 5.8 0 01.9 0 4.1 4.1 0 011 .3l-.3 3v5a10 10 0 002-1 15.2 15.2 0 001.6-1.4l.1-4.1v-.5-1a.9.9 0 01.2-.4.1.1 0 01.1 0h.8a7.3 7.3 0 01.7.2 3.3 3.3 0 01.5.1.8.8 0 01.5.4l.1.3a1.3 1.3 0 00.2.4 1.6 1.6 0 00.5.4.5.5 0 01.3.5l-.5 2.2-.2 2.3a24 24 0 00-.2 2.6v1a9 9 0 00.2 1.3 3.8 3.8 0 00.4 1.2 1 1 0 00.9.5 2 2 0 001.5-.7 5.1 5.1 0 001-1.5 8.4 8.4 0 00.5-1.7 5.8 5.8 0 01.3-1 2.7 2.7 0 01.2-.4.4.4 0 01.4-.2.7.7 0 01.7.4 1.7 1.7 0 01.1.6"/><path d="M98.2 17.7a7.2 7.2 0 01-.4 1.9 8.4 8.4 0 01-1 2.2 6.7 6.7 0 01-1.6 1.7 3.9 3.9 0 01-2.4.8 3 3 0 01-2.2-.8 5.2 5.2 0 01-1.2-2 8.9 8.9 0 01-.4-2l-.1-1.8-.1-1a40 40 0 01-3.6 2.5.2.2 0 000 .2.5.5 0 010 .2v3.7a1.2 1.2 0 01.1.4 1.7 1.7 0 010 .2.3.3 0 01-.2.3 1.9 1.9 0 01-.4.1 3.7 3.7 0 01-.5 0h-.8a3.4 3.4 0 01-.8-.1 1.8 1.8 0 01-.6-.3.7.7 0 01-.3-.6 1 1 0 01.2-.5 1.7 1.7 0 00.1-.7V10.4a1 1 0 00-.1-.6.8.8 0 01-.2-.4c0-.2.1-.3.3-.4a2.4 2.4 0 01.6-.1 5.4 5.4 0 01.7 0h.4a5.5 5.5 0 01.8 0 4 4 0 011.2.3l-.4 3v5a10 10 0 002-1 16 16 0 001.6-1.4l.1-4.1v-.5-.5a4 4 0 010-.5.8.8 0 01.2-.4.1.1 0 01.1 0h.7a6.8 6.8 0 01.7.2 3.4 3.4 0 01.5.1.8.8 0 01.5.4 1.7 1.7 0 000 .3 1.1 1.1 0 00.3.4 1.4 1.4 0 00.5.4.5.5 0 01.3.5l-.5 2.3-.3 2.2a24 24 0 00-.1 2.6v1a7 7 0 00.2 1.3 3.6 3.6 0 00.4 1.2 1 1 0 00.9.5 2 2 0 001.6-.7 5.3 5.3 0 001-1.5 9.1 9.1 0 00.5-1.7 5.8 5.8 0 01.3-1 2.6 2.6 0 01.2-.4.5.5 0 01.4-.2c.3 0 .6.1.7.4a2 2 0 01.1.6"/><path d="M106 22.1a5.2 5.2 0 01-1.3-2.3 4.2 4.2 0 00-.3 1 9.8 9.8 0 01-.5 1.6 6 6 0 01-1 1.5 1.9 1.9 0 01-1.4.6c-1.7 0-2.8-.5-3.5-1.4a8.2 8.2 0 01-1-4.1v-9-.5h.3a5.4 5.4 0 01.7 0 8.9 8.9 0 011 .2 4.5 4.5 0 011 .4q.4.2.4.5v8.2a13.8 13.8 0 00.1 1.5 3.5 3.5 0 00.3 1.1.7.7 0 00.7.5c.8 0 1.4-.7 1.8-2.2a29.2 29.2 0 00.7-7 1.3 1.3 0 00-.1-.5 1.5 1.5 0 01-.2-.7c0-.3.3-.4.6-.4a8 8 0 011 0 5 5 0 011.8.1c.4.2.6.6.6 1.4l-.2 1a6.3 6.3 0 000 .8v3.5a13.4 13.4 0 00.3 1.7 7.7 7.7 0 00.6 1.6c.3.5.6.8 1 .6a1.5 1.5 0 00.8-.5l.4-.5a.7.7 0 01.6-.3.6.6 0 01.4.3.7.7 0 01.2.3 2 2 0 01-.4 1.2 3 3 0 01-.9.8 3.2 3.2 0 01-1.9.2 4.5 4.5 0 01-2.2-.9z"/><path d="M123.2 15.7a8 8 0 01-.1 1l-.2 1-.1 1-.2.6c0 .2 0 .5-.2.8l-.3.8c0 .3-.2.5-.3.7a3.8 3.8 0 01-1 1.2 2.3 2.3 0 01-1.5.5 3 3 0 01-1.4-.3 2.7 2.7 0 01-.9-.7 3.9 3.9 0 01-.6-1l-.2-.5-.2-.5a3 3 0 00-.7-.7l-.2-.3h-.4l-.3.7a4.2 4.2 0 00-.2.7 4.5 4.5 0 000 .9 8 8 0 000 1.3 3.5 3.5 0 010 .8h-.3a2.2 2.2 0 00-.4 0h-.6a3 3 0 01-1.4-.1c-.2-.2-.3-.6-.3-1.2l-.5-12V10a.8.8 0 000-.3 2.7 2.7 0 01-.1-.4c0-.1 0-.3.3-.4a3.6 3.6 0 011.3-.1h1.1l.7.2a3.5 3.5 0 01.6.3l-.2 1-.2 1.3v5.2l.2-.4c.2-.2.3-.6.4-1s.4-.5.6-.8l.8-1.4.7-1 .4-.7.6-1a16 16 0 011.1-1.3c.3 0 .4 0 .4.2a1.6 1.6 0 00.1.7 1 1 0 010 .5l-.8 1.4-1 1.8-1 2-1.2 2h.3a2.3 2.3 0 01.5.3l.5.3a2.1 2.1 0 01.4.4l.3.4a3.4 3.4 0 01.4.5l.2.3v.3l.2.3.2.3a1.4 1.4 0 00.3.5 1.1 1.1 0 00.6.2 1 1 0 001-.5 2.5 2.5 0 00.3-.6l.3-.7a15 15 0 00.4-2l.2-1.1.4-1a1 1 0 01.2-.6.7.7 0 01.4-.1c.4 0 .6.2.6.7M144.7 22.4l-.1-.7c-.1-.2-.2-.2-.3 0a6.6 6.6 0 00-.5.5l-.7.8a1.1 1.1 0 01-.6.5h-.2a.6.6 0 01-.2 0h-.4a.6.6 0 01-.2 0 3 3 0 01-1-.4 4.8 4.8 0 01-1-.7 7.1 7.1 0 01-1-1.2 5 5 0 01-.7-1.3 11 11 0 00-.4 1.1 9 9 0 01-.7 1.6 5.8 5.8 0 01-1 1.5 2.1 2.1 0 01-1.6.6 8.8 8.8 0 01-1 0 5.6 5.6 0 01-1-.3 3.5 3.5 0 01-1-.5 1 1 0 01-.4-.7 1 1 0 000-.3.9.9 0 01-.2-.4 17.2 17.2 0 01-.3-1.8l-.2-2v-2.4a2.6 2.6 0 000-.7V15a2.8 2.8 0 01.1-.5 3.2 3.2 0 00.1-.7l.1-2a7.5 7.5 0 01.3-1.8.8.8 0 01.4-.1 3 3 0 01.4 0h.4a9.1 9.1 0 011 0 5.9 5.9 0 01.9.3c.3.1.4.2.4.4a.2.2 0 010 .1v.1a.9.9 0 00-.3.5 3.6 3.6 0 01-.1.6 35.5 35.5 0 00-.6 5.9V21a2.2 2.2 0 00.2.8 1.3 1.3 0 00.3.6.6.6 0 00.5.3.6.6 0 00.5-.4l.3-.5.6-1.5.5-1.5v-.4a3 3 0 000-.4 1.1 1.1 0 00.2-.4 2 2 0 000-.4 2.8 2.8 0 00.1-.5 4.6 4.6 0 000-.5v-.4c0-.3.1-.2.2-.3v-.4V12.4a.4.4 0 01.3-.3 2 2 0 01.5-.1h.2a1.6 1.6 0 00.4 0 6.2 6.2 0 011.2.2 8 8 0 011 .4V17l.3 2a10.8 10.8 0 00.5 2.1 1 1 0 00.2.4.8.8 0 00.4.3h.3a.6.6 0 00.5-.3 1.4 1.4 0 00.2-.4 3.4 3.4 0 00.4-.9l.2-.9a18.9 18.9 0 00.6-4l.4-3.8v-1.3a1.2 1.2 0 01.3 0 .5.5 0 01.2 0h.3a3.5 3.5 0 01.8.2 5.9 5.9 0 011 .3 2.9 2.9 0 01.8.6 1 1 0 01.4.8.9.9 0 01-.1.5l-.4.5a.3.3 0 010 .3 10.5 10.5 0 00-.4 1.5l-.1 1.4v1.8l.1 3.5v1h.1a3.9 3.9 0 00.7 0h.3a2.5 2.5 0 01.6.1 8.6 8.6 0 011.6.5 3 3 0 011.7 1.4.8.8 0 01.3.4 2 2 0 010 .5.9.9 0 01-.4.8 1.5 1.5 0 01-.9.3 1.5 1.5 0 01-.7-.3.7.7 0 01-.3-.7v-.5a.3.3 0 000-.2.2.2 0 00-.1-.1 6.9 6.9 0 00-1.8-.3 2.9 2.9 0 00-1.2.2l.2.7a4.8 4.8 0 01-.3 2.1 3.8 3.8 0 01-1 1.6 2.7 2.7 0 01-1.7.7 3 3 0 01-2-.7 3.9 3.9 0 01-1.1-1.2 1.8 1.8 0 01-.3-1 1.9 1.9 0 01.4-1 3.9 3.9 0 01.7-.8 9.8 9.8 0 013-1.7zm.3 2.6a5 5 0 00-2.1.8 1.5 1.5 0 00-.6 1 1 1 0 00.3.8 1.5 1.5 0 00.9.4 1.4 1.4 0 001-.2 1.5 1.5 0 00.6-1.2 4.5 4.5 0 000-1.3l-.1-.3"/><path d="M163 20a4.4 4.4 0 01-.4 1.2 6 6 0 01-.8 1.3 4.6 4.6 0 01-1.1 1 2.5 2.5 0 01-1.4.4 2.9 2.9 0 01-2-.8 3.6 3.6 0 01-1-2.3l-.6 1.3a6.8 6.8 0 01-.8 1.4 4.8 4.8 0 01-1 1 2.3 2.3 0 01-1.5.5 1.4 1.4 0 01-.3 0h-.3a1.3 1.3 0 00-.3-.2 3.1 3.1 0 00-.4 0 2.3 2.3 0 01-1.6-.5 3.9 3.9 0 01-1-1.4 7 7 0 01-.6-1.8 10.5 10.5 0 01-.1-2 31.6 31.6 0 01.2-4 14.4 14.4 0 01.8-3.3 6.2 6.2 0 011.5-2.3 3.2 3.2 0 012.3-.8 4.4 4.4 0 011.2 0l.7.4.8.3a5 5 0 001.1.3 2.7 2.7 0 011.1 1 3.4 3.4 0 01.5 1.2 6.3 6.3 0 010 1.4 6.7 6.7 0 00.1 1.4l.2.1.4.2a1.3 1.3 0 01.4.2.5.5 0 01.2.5 5.7 5.7 0 00-.5 1.7 16 16 0 000 1.7 10.1 10.1 0 000 1 7 7 0 00.2 1.1 2.2 2.2 0 00.4.9.9.9 0 00.7.3 1 1 0 00.8-.4 4 4 0 00.6-1 9.3 9.3 0 00.4-1.1 6.2 6.2 0 00.3-.9q0-.4.3-.4a.5.5 0 01.4.2 1 1 0 01.2.7v.2a2 2 0 010 .3m-7.2-5.6a6.6 6.6 0 000-1 3.8 3.8 0 00-.3-1 2 2 0 00-.6-.7 1.6 1.6 0 00-1-.3 2.1 2.1 0 00-1.7.9 7 7 0 00-1.1 2 11.5 11.5 0 00-.5 2.6 23 23 0 000 3.3 11.1 11.1 0 00.1 1.5 4 4 0 00.5 1.2.8.8 0 00.7.5 2 2 0 001.8-.8 5.6 5.6 0 00.9-2 17 17 0 00.4-2.5l.3-2.5a1 1 0 01.3-.8c.2 0 .3-.1.3-.2z"/><path d="M173.3 20.7a6 6 0 01-5.8 3.8h-.4a2.5 2.5 0 01-.4 0 5.5 5.5 0 01-1.8-.5 4.7 4.7 0 01-1.6-1.2 6 6 0 01-1-2 8 8 0 01-.3-2.6 11.6 11.6 0 01.4-3 6.3 6.3 0 011.6-2.7 8.2 8.2 0 012.5-1.8 6.9 6.9 0 013-.7 4.6 4.6 0 011.3.2c.4.2.6.3.7.5a7 7 0 010 1v1.5a3.8 3.8 0 010 1.2.5.5 0 01-.6.4.8.8 0 01-.7-.4l-.3-1a4.2 4.2 0 00-.6-.8 1.3 1.3 0 00-1-.4 2.2 2.2 0 00-1.6.7 5.2 5.2 0 00-1 1.6 8.8 8.8 0 00-.5 2 11.3 11.3 0 00-.2 1.3 8.2 8.2 0 00.7 3.5 2.7 2.7 0 002.4 1.6h.4a3.1 3.1 0 002-.6 4.9 4.9 0 001.1-1.2 7.8 7.8 0 00.7-1.2l.5-.5h.2q.5 0 .5.6a2 2 0 01-.2.7"/><path d="M177.4 14.2a42.2 42.2 0 01-.7 4.3 12.4 12.4 0 01-2.5 4.8c-.1.3-.5.4-1 .3a3.7 3.7 0 01-1.5-.8q1 .6 2.2-3.1a28.1 28.1 0 001.2-6.4c.1-1.8.2-3 .4-3.8l.5-.4c.3-.2.7-.2 1-.2a2.7 2.7 0 01.9-.1 6.5 6.5 0 011.2.2 4.4 4.4 0 011.1.5 1.5 1.5 0 01.7.7l.3 3a43.1 43.1 0 01.2 6.1 6.7 6.7 0 00.3 1.4 3.2 3.2 0 00.4 1 1 1 0 00.8.4 1.9 1.9 0 001.1-.4 3.2 3.2 0 001-1.1 9.4 9.4 0 00.6-1.6l.5-2c.2-.6.4-1 .8-1s.4.1.5.2a1.6 1.6 0 01.1.8 2 2 0 010 .5 9 9 0 01-.4 1.7 13 13 0 01-1 2.4 8.2 8.2 0 01-1.5 2 3.1 3.1 0 01-2.2.9 4.4 4.4 0 01-2.4-.6 4 4 0 01-1.5-1.7 8.4 8.4 0 01-.7-2.4 19.1 19.1 0 01-.2-2.9v-.3z"/><path d="M195.2 22.1a5.2 5.2 0 01-1.3-2.3 5.5 5.5 0 00-.3 1 9 9 0 01-.5 1.6 6 6 0 01-1 1.5 1.9 1.9 0 01-1.4.6c-1.7 0-2.8-.5-3.4-1.4a8.3 8.3 0 01-1.2-4V9.8a2.7 2.7 0 00.2-.4h.3a5.2 5.2 0 01.7 0 9 9 0 011 .2 4.4 4.4 0 01.9.4c.3.1.4.3.4.5v8.2a13.9 13.9 0 00.1 1.5 4 4 0 00.4 1.1.8.8 0 00.7.5c.7 0 1.3-.7 1.7-2.2a29 29 0 00.7-7 1.4 1.4 0 00-.1-.5 1.6 1.6 0 01-.2-.7c0-.3.3-.4.7-.4a8.1 8.1 0 011 0 4.9 4.9 0 011.7.1c.4.2.6.6.6 1.4l-.1 1a6.4 6.4 0 00-.1.8v3.5a10.6 10.6 0 00.3 1.7 7.7 7.7 0 00.6 1.6c.3.5.6.8 1 .6a1.4 1.4 0 00.8-.5 6.3 6.3 0 01.4-.5.7.7 0 01.6-.3.5.5 0 01.5.3.7.7 0 01.1.3 2 2 0 01-.4 1.2 3 3 0 01-.9.8 3.2 3.2 0 01-1.9.2 4.5 4.5 0 01-2.2-.9z"/><path d="M210.5 20.1V21.3a1.4 1.4 0 01-.2.5v.3l-.1.4a1.7 1.7 0 00-.1.2 1.8 1.8 0 000 .2 3 3 0 01-.3.3 3.8 3.8 0 01-.7 1 3.6 3.6 0 01-1.1.9h-.4l-.3.2a1.4 1.4 0 01-.4 0 1.5 1.5 0 01-.4 0 1 1 0 00-.2 0H205a6.7 6.7 0 01-1 0 3.8 3.8 0 01-1-.4l-.7.3a3 3 0 01-.7.2h-.1a.5.5 0 01-.5-.3 1.6 1.6 0 01-.2-.4 1.6 1.6 0 000-.4l-.2-1v-1V19v-3.1-1.1-.4a4 4 0 01-1 1 .6.6 0 01-.4 0 .5.5 0 01-.3-.2.1.1 0 000-.1.3.3 0 010-.1 1.4 1.4 0 01.3-.7 3.5 3.5 0 01.4-.5l.7-.6V5.5c0-.3 0-.6.2-.9a4.3 4.3 0 000-.6 1.8 1.8 0 01.1-.4 4 4 0 01.7-1.3 2.4 2.4 0 01.5-.5l.5-.4a6.2 6.2 0 011.7-1 4.5 4.5 0 011.1-.3 3.4 3.4 0 011.2 0 1.1 1.1 0 01.3 0l.4.2a9.8 9.8 0 011 .4 1.6 1.6 0 01.8.8.7.7 0 010 .1.3.3 0 00.1.1A5 5 0 01209 3a13 13 0 01-.2 1.6 11.7 11.7 0 01-.4 1.6 9.2 9.2 0 01-.5 1.4 16 16 0 01-1.8 2.8 11.4 11.4 0 01-2.9 2.6v2a3 3 0 00.2-.4v-.3l.5-1.1a2.7 2.7 0 01.9-1.1.6.6 0 01.2-.1 1.4 1.4 0 01.4-.2 1 1 0 01.6 0 2 2 0 01.7.3 8.2 8.2 0 001 .2 2 2 0 01.9.5 2.4 2.4 0 01.5.5 3.2 3.2 0 01.3.6 4.2 4.2 0 01.4.9 6.4 6.4 0 01.3.9 1.4 1.4 0 010 .2l.1.3.1.5.1.4v2zM207 3.8v-.5a3.6 3.6 0 00-.2-1 1.6 1.6 0 00-.6-.9.3.3 0 00-.2 0 .5.5 0 01-.2-.2h-.5a.5.5 0 01-.2.1h-.1a1.4 1.4 0 00-.6.5l-.3.6a4.8 4.8 0 00-.4 1 1.4 1.4 0 00-.1.3V4l-.1.4a2.3 2.3 0 010 .3 3 3 0 00-.1.4l-.1.4a2.6 2.6 0 000 .5 2.6 2.6 0 010 .4 3.8 3.8 0 010 .5v4.5a5.7 5.7 0 00.5-.4 6 6 0 00.9-1 11 11 0 00.9-1.3 16.8 16.8 0 00.7-1.5 14.7 14.7 0 00.5-1.6 3.8 3.8 0 00.1-.5l.1-.6.1-.5v-.3m.7 15.4v-.6-1.6a13 13 0 00-.3-1.4 8 8 0 00-.3-1 2.4 2.4 0 00-.6-.8.3.3 0 00-.2 0 .6.6 0 00-.5-.1 1 1 0 00-.7.4l-.4.7a2 2 0 01-.2.4 4.2 4.2 0 00-.2.5 20 20 0 00-.8 2.7 22.9 22.9 0 00-.4 2.6v.3a1.2 1.2 0 000 .2v1a2.4 2.4 0 000 .4 2.2 2.2 0 000 .4v.1a.1.1 0 000 .1l.4.2.3.1a2.5 2.5 0 01.4.2 1.6 1.6 0 00.3.1h.7a2.6 2.6 0 00.5 0 1.4 1.4 0 00.5-.4 2.6 2.6 0 00.3-.3 2.9 2.9 0 00.3-.3 4.8 4.8 0 00.5-1.3 8.7 8.7 0 00.3-1.2 3.1 3.1 0 000-.5v-.4-.3-.3M220.3 22.1a5.2 5.2 0 01-1.3-2.3 4.8 4.8 0 00-.3 1 9 9 0 01-.5 1.6 5.7 5.7 0 01-1 1.5 1.9 1.9 0 01-1.4.6c-1.7 0-2.8-.5-3.5-1.4a8.2 8.2 0 01-1-4V9.8v-.4h.4a5.2 5.2 0 01.7 0 9 9 0 011 .2 4.4 4.4 0 01.9.4c.3.1.4.3.4.5v8.2a13.9 13.9 0 00.1 1.5 4 4 0 00.3 1.1.7.7 0 00.7.5c.8 0 1.4-.7 1.8-2.2a29.2 29.2 0 00.7-7 1.3 1.3 0 00-.1-.5 1.6 1.6 0 01-.2-.7c0-.3.3-.4.6-.4a8 8 0 011.1 0 4.9 4.9 0 011.7.1c.4.2.6.6.6 1.4l-.2 1a6.4 6.4 0 000 .8v3.5a10.6 10.6 0 00.3 1.7 7.7 7.7 0 00.6 1.6c.3.5.6.8 1 .6a1.4 1.4 0 00.8-.5 6.3 6.3 0 01.4-.5.7.7 0 01.6-.3.5.5 0 01.4.3.7.7 0 01.2.3 2 2 0 01-.4 1.2 3.2 3.2 0 01-.9.8 3.2 3.2 0 01-1.9.2 4.5 4.5 0 01-2.2-.9z"/><path d="M233.2 16.1a3.4 3.4 0 00.1.5 14 14 0 001 2.5 9.3 9.3 0 00.8 1.4 5.8 5.8 0 00.8 1.1 1.4 1.4 0 001 .4 2.1 2.1 0 001.3-.3 3.3 3.3 0 001-1 5.5 5.5 0 00.5-1.4 13.2 13.2 0 00.3-1.4 2 2 0 01.2-.5.3.3 0 01.3-.2.6.6 0 01.4.1.7.7 0 01.3.4 2.1 2.1 0 010 .5 3.5 3.5 0 010 .4v.1a7.8 7.8 0 01-.2 1.2 6.4 6.4 0 01-.8 1.8 5.5 5.5 0 01-1.6 1.5 4.6 4.6 0 01-2.5.8 4.5 4.5 0 01-3.3-1.2 10.2 10.2 0 01-2.2-3.8 3.6 3.6 0 00-.7.9 38.8 38.8 0 00-2.4 4 4 4 0 00-.6 1.6c0 .2 0 .2.2.3 0 .1-.1.2-.3.2a1.5 1.5 0 01-.5.1h-.3a4.3 4.3 0 01-.7 0 4.1 4.1 0 01-.7-.4.5.5 0 01-.2-.4l5.2-8.6a7.5 7.5 0 00-.1-1 13.4 13.4 0 00-.4-1.6 7 7 0 00-.6-1.5c-.3-.5-.6-.7-1-.7a1.4 1.4 0 00-1 .4 3.4 3.4 0 00-.6.9 5.3 5.3 0 00-.4 1l-.2.8a2.1 2.1 0 01-.8.7 2 2 0 01-1 .4c-.3 0-.4-.1-.4-.4a4 4 0 01.7-1.9 12 12 0 011.6-2.2 12 12 0 012-1.8 3.8 3.8 0 012-.7 1.8 1.8 0 011.4.5 4.7 4.7 0 01.9 1.3 7 7 0 01.5 1.5l.3 1.3.6-.6 1-1 1.3-1.3 1.3-1.3a12.7 12.7 0 011.2-1 1.5 1.5 0 01.7-.3 2.6 2.6 0 011.2.4 1.2 1.2 0 01.7 1c0 .1 0 .2-.2.2a.3.3 0 01-.2 0 .3.3 0 00-.2-.2 1.5 1.5 0 00-.6.2 5.3 5.3 0 00-1 .8L237 12a96.2 96.2 0 00-3.2 3.4 3.3 3.3 0 00-.6.8M261 24.8a.5.5 0 01-.3.5 1.8 1.8 0 01-.7.1h-.8c-.1 0-.2 0-.2.2v8.3a10 10 0 01-.5 2.4 4.4 4.4 0 01-1 1.7 2.3 2.3 0 01-1.8.7l-2-.1a6.7 6.7 0 01-1.9-.5 3.5 3.5 0 01-1.4-1 2.8 2.8 0 01-.6-1.8 10.2 10.2 0 01.3-2.4 11.7 11.7 0 01.8-2.3 13.6 13.6 0 011.3-2.2 11.7 11.7 0 011.7-1.8 11.5 11.5 0 011-.9l1-.7.1-1.5V22l-.5.9a7.3 7.3 0 01-.6 1 4.8 4.8 0 01-.8.9 1.7 1.7 0 01-1 .3 1.4 1.4 0 01-.6 0 1.6 1.6 0 00-.6-.2 3.9 3.9 0 01-1.8-.5 3.1 3.1 0 01-1.2-1.3 6.3 6.3 0 01-.5-1.9 18.3 18.3 0 01-.2-2.4 28.6 28.6 0 01.2-3.5 13.9 13.9 0 01.8-3.2 6.9 6.9 0 011.4-2.3 3 3 0 012.3-1 1.3 1.3 0 01.4.1l.6.3.6.2.4.2a11 11 0 011.4.3 3.7 3.7 0 011.2.6 2.3 2.3 0 01.7.8 3 3 0 01.3 1.4 4.6 4.6 0 01-.1 1 6 6 0 00-.1 1.1.4.4 0 00.2.4 4 4 0 00.5.2 4.6 4.6 0 01.5.2.3.3 0 01.3.3 1 1 0 01-.2.4 2.3 2.3 0 00-.2.3 3.6 3.6 0 00-.2.9l-.1 1.3v5.3H259.5a3.4 3.4 0 011 .2c.4.1.6.3.6.6M256 14a5.8 5.8 0 000-.9 3.6 3.6 0 00-.3-.9 2 2 0 00-.6-.7 1.4 1.4 0 00-1-.3 2.1 2.1 0 00-1.3.5 4.6 4.6 0 00-1.1 1.5 9.6 9.6 0 00-.8 2.3 15.6 15.6 0 00-.3 3.2l.1 1.5a11.1 11.1 0 00.2 1.4 2.8 2.8 0 00.4 1 .9.9 0 00.8.5 2 2 0 001.4-.7 5.2 5.2 0 001-1.5 9.9 9.9 0 00.6-2 12 12 0 00.3-1.7 9.3 9.3 0 010-1.4 1.3 1.3 0 01.2-.4 1.4 1.4 0 00.3-.7 4.5 4.5 0 000-.7m-.1 12.2a6.8 6.8 0 00-1.7 1.6 12.8 12.8 0 00-1.4 2.2 14.1 14.1 0 00-.9 2.4 9 9 0 00-.3 2.2 4.4 4.4 0 000 .8 4 4 0 00.3.7 1.7 1.7 0 00.5.7 1.3 1.3 0 00.8.2 1.7 1.7 0 001.3-.6 4.4 4.4 0 00.9-1.5 8.5 8.5 0 00.3-1.7l.1-1.4v-.3-.8V29zM266.8 7.7a.5.5 0 01-.3.4 2 2 0 01-.6.2l-.6.1h-.4a3.4 3.4 0 01-1.6-.4 4.3 4.3 0 01-1.5-1.3l-.2-.3a.6.6 0 01-.1-.3s0-.2.2-.3l.7-.3a6 6 0 01.7-.2 2.3 2.3 0 01.4 0 3.7 3.7 0 011.6.3 2.6 2.6 0 011.2 1.4l.3.4a.8.8 0 01.2.3m4 10.6a10.3 10.3 0 01-.5 1.7 6.8 6.8 0 01-.9 1.7A4.7 4.7 0 01268 23a4 4 0 01-2 .5 3.8 3.8 0 01-2-.6 3.2 3.2 0 01-1.5-1.6 5.7 5.7 0 01-.3-2v-.9-5.1-.6a3.6 3.6 0 00-.1-.6 1.6 1.6 0 00-.2-.3.6.6 0 010-.3l.1-.2a1.4 1.4 0 01.5-.1 5 5 0 01.6 0h.5a4.8 4.8 0 011 .1 2.5 2.5 0 01.8.3.7.7 0 01.3.7l-.1.4a3.9 3.9 0 00-.3 1l-.1.5v.5l-.2.7v4.2a5.5 5.5 0 00.1 1 1.7 1.7 0 00.5.8 1.1 1.1 0 00.8.3 1.6 1.6 0 001.2-.4l.6-.7a3.8 3.8 0 00.7-1.3l.4-1.6v-.4a.6.6 0 01.8-.5c.3 0 .5.3.5.8v.1z"/><path d="M280.1 20.1V21.3a1.4 1.4 0 01-.2.5 3.6 3.6 0 000 .3l-.1.4v.2l-.2.2a3 3 0 01-.1.3 3.8 3.8 0 01-.8 1 3.6 3.6 0 01-1 .9h-.2a.8.8 0 00-.2 0l-.4.2a1.4 1.4 0 01-.4 0 1.6 1.6 0 01-.4 0 1 1 0 00-.2 0h-1.2a6.7 6.7 0 01-1-.1 3.8 3.8 0 01-1.2-.4l-.6.3a3 3 0 01-.6.2h-.3a.5.5 0 01-.4-.3 1.9 1.9 0 01-.2-.4 1.3 1.3 0 00-.1-.4l-.1-1v-1-3.4-3-1.1-.4a4 4 0 01-1 1 .6.6 0 01-.5 0 .5.5 0 01-.2-.2.1.1 0 000-.1.3.3 0 010-.1 1.4 1.4 0 01.3-.7 3.5 3.5 0 01.4-.5l.6-.6V5.5l.2-.9a4.3 4.3 0 000-.6 1 1 0 01.1-.4 4 4 0 01.7-1.3 2.4 2.4 0 01.5-.5l.5-.4a6 6 0 011.8-1 4.5 4.5 0 011-.3 3.4 3.4 0 011.3 0 1.1 1.1 0 01.2 0l.4.2a9.8 9.8 0 011 .4 1.6 1.6 0 01.9.8.7.7 0 000 .1.3.3 0 000 .1 5 5 0 01.2 1.3 13 13 0 01-.1 1.6 11.7 11.7 0 01-.4 1.6 9.2 9.2 0 01-.6 1.4 16 16 0 01-1.8 2.8 11.4 11.4 0 01-2.9 2.6v2l.2-.4.1-.3.4-1.1a2.7 2.7 0 011-1.1.6.6 0 01.2-.1 1.5 1.5 0 01.3-.2 1 1 0 01.6 0 2 2 0 01.7.3 7.7 7.7 0 001 .2 2 2 0 011 .5 2.4 2.4 0 01.4.5 3.2 3.2 0 01.3.6 4.2 4.2 0 01.5.9 6.4 6.4 0 01.2.9 1.4 1.4 0 01.1.2 2.6 2.6 0 000 .3l.1.5.1.4v2zm-3.4-16.3v-.5a3.6 3.6 0 00-.2-1 1.6 1.6 0 00-.6-.9.3.3 0 00-.2 0 .5.5 0 01-.2-.2h-.5a.6.6 0 01-.2.1h-.2a1.3 1.3 0 00-.6.5l-.2.6a4.2 4.2 0 00-.4 1 1.4 1.4 0 00-.1.3V4l-.1.4a2.3 2.3 0 010 .3 3 3 0 00-.2.4v.4a2.6 2.6 0 000 .5 2.6 2.6 0 010 .4 3.8 3.8 0 010 .5v4.5a5.7 5.7 0 00.5-.4 6 6 0 00.9-1 11 11 0 00.8-1.3 16.8 16.8 0 00.8-1.5 14.7 14.7 0 00.5-1.6 3.8 3.8 0 00.1-.5l.1-.6.1-.5v-.3m.7 15.4v-.6-1.6a13 13 0 00-.3-1.4 8 8 0 00-.3-1 2.4 2.4 0 00-.6-.8.3.3 0 00-.2 0 .6.6 0 00-.5-.1 1 1 0 00-.7.4l-.4.7a2 2 0 01-.2.4 4.2 4.2 0 00-.2.5 18.6 18.6 0 00-.8 2.7 22.9 22.9 0 00-.4 2.6v.3a1.2 1.2 0 000 .2v1a2.4 2.4 0 000 .4v.5a.1.1 0 000 .1l.4.2.3.1a2.5 2.5 0 01.4.2 1.7 1.7 0 00.3.1h.7a2.6 2.6 0 00.5 0 1.4 1.4 0 00.5-.4 2.6 2.6 0 00.3-.3 2.9 2.9 0 00.2-.3 4.8 4.8 0 00.6-1.3 8.7 8.7 0 00.3-1.2 3.1 3.1 0 000-.5v-.4-.3-.3M295.1 18.7v.5l-.1.9a16.1 16.1 0 01-.6 2.2 4.8 4.8 0 01-.5 1.1l-.6 1a2.4 2.4 0 01-1.9 1 2.3 2.3 0 01-1.8-1 6.2 6.2 0 01-1-2 15 15 0 01-.7-5l.1-2a1.7 1.7 0 010-.4v-.3c0-.2 0-.1-.3 0a4 4 0 01-1 .7 2 2 0 01-1.5.3 2.3 2.3 0 01-1-.6 3.1 3.1 0 01-.6-.9c0-.3-.2-.4-.2-.4a1 1 0 00-.2.3A4.7 4.7 0 01282 16c-.7.7-1.2.8-1.6.5a.4.4 0 01-.3-.1v.2-.2a.8.8 0 01.2-.3l1-1.7a3.6 3.6 0 00.3-1.1 5.9 5.9 0 000-.8V12v-.5l-.2-1.4a.6.6 0 01.2-.4.9.9 0 01.4-.3 1.7 1.7 0 01.7-.3h.6c.4 0 .6.3.6.8v1.2a7.2 7.2 0 00.5 2 1.8 1.8 0 00.8.8c.4.2.9 0 1.5-.5a4.2 4.2 0 00.5-.6l.6-.9.6-.7.4-.3h.7l.6.1a4.4 4.4 0 011.2.4.8.8 0 01.5.7 3.5 3.5 0 010 .4 1.1 1.1 0 00-.2.4 1.8 1.8 0 010 .3.9.9 0 00-.2.2 1.8 1.8 0 010 .3 1.5 1.5 0 00-.1.4 18.7 18.7 0 00-.5 2.7 25.4 25.4 0 00-.2 3v1.4a4.3 4.3 0 00.2.7 4 4 0 00.3 1.2c.2.4.4.5.6.5s.7-.2 1-.7a7 7 0 00.8-1.7l.2-1c0-.4.2-.7.3-1l.2-.9a6.2 6.2 0 00.1-.6 2.6 2.6 0 01.1-.3.3.3 0 01.1-.2.6.6 0 01.3-.1c.4 0 .5.2.5.6v1"/><path d="M309.6 20a4.4 4.4 0 01-.4 1.2 6 6 0 01-.7 1.3 4.6 4.6 0 01-1.2 1 2.5 2.5 0 01-1.4.4 2.9 2.9 0 01-2-.8 3.6 3.6 0 01-1-2.3l-.6 1.3a6.3 6.3 0 01-.8 1.4 4.8 4.8 0 01-1 1 2.3 2.3 0 01-1.4.5 1.6 1.6 0 01-.4 0h-.2a1.3 1.3 0 00-.3-.2 2.9 2.9 0 00-.5 0 2.3 2.3 0 01-1.6-.5 3.8 3.8 0 01-1-1.4 7 7 0 01-.5-1.8 10.5 10.5 0 01-.2-2 31.6 31.6 0 01.2-4 14.4 14.4 0 01.9-3.3 6.2 6.2 0 011.5-2.3 3.2 3.2 0 012.2-.8 4.4 4.4 0 011.2 0l.7.4.8.3a5 5 0 001.1.3 2.7 2.7 0 011.2 1 3.4 3.4 0 01.4 1.2 7 7 0 010 1.4 6.1 6.1 0 00.1 1.4l.2.1.4.2a1.5 1.5 0 01.4.2.5.5 0 01.2.5 6 6 0 00-.5 1.7 15.8 15.8 0 000 1.7 10.3 10.3 0 000 1 8.5 8.5 0 00.2 1.1 2.2 2.2 0 00.4.9.9.9 0 00.7.3 1.1 1.1 0 00.8-.4 4.3 4.3 0 00.6-1 9.3 9.3 0 00.5-1.1 8.3 8.3 0 00.2-.9q0-.4.4-.4a.5.5 0 01.3.2 1 1 0 01.2.7v.2a2 2 0 010 .3m-7.1-5.6a6.6 6.6 0 00-.1-1 3.8 3.8 0 00-.3-1 2 2 0 00-.6-.7 1.6 1.6 0 00-1-.3 2.1 2.1 0 00-1.7.9 7 7 0 00-1 2 11.5 11.5 0 00-.6 2.6 23 23 0 000 3.3 11.1 11.1 0 00.2 1.5 4 4 0 00.4 1.2.8.8 0 00.8.5 2 2 0 001.7-.8 5.4 5.4 0 00.9-2 15.7 15.7 0 00.4-2.5l.3-2.5a1 1 0 01.3-.8c.2 0 .3-.1.3-.2z"/><path d="M320.6 14a22.5 22.5 0 00-1 2.2L319 18l-.2.8-.3 1.3-.4 1.5a6 6 0 00-.1 1.2l-.4.3a2.3 2.3 0 01-.9.2 3.4 3.4 0 01-1.3-.3 1.4 1.4 0 01-.8-.7 3.8 3.8 0 01-.3-1.3V16v-.6l-.1-.4-.5 1a20.9 20.9 0 00-.6 2.2 56 56 0 00-.4 2.8 19.4 19.4 0 00-.2 2.6.5.5 0 01-.5.5 5.9 5.9 0 01-1 0 4.8 4.8 0 01-.5 0l-.7-.2a5.3 5.3 0 01-.6-.2.6.6 0 01-.4-.3 7.1 7.1 0 01-.3-1.6l-.1-3.5V15l.2-4.3v-1-.5c0-.2 0-.4.2-.4a1.6 1.6 0 01.4 0 4 4 0 01.6 0 5.6 5.6 0 01.7.1l.7.2a2 2 0 01.4.2v9l.5-1.7.5-2a16.3 16.3 0 01.8-1.8 3.5 3.5 0 01.8-1.2 1.3 1.3 0 01.5-.2 4.5 4.5 0 01.7 0 2.5 2.5 0 01.5 0 2.8 2.8 0 01.6.2 1.8 1.8 0 01.4.3.7.7 0 01.3.4V19a3.7 3.7 0 00.5-1l.9-2.4 1-2.8a23.4 23.4 0 011-2.4l.5-.1h.8a2 2 0 01.7.1 6 6 0 011 .5 4.2 4.2 0 01.7.7 1.2 1.2 0 01.3.8 1.8 1.8 0 01-.2.4 2.2 2.2 0 00-.3.7 13 13 0 00-.4 2.1v4a8 8 0 00.2 1.2 2.7 2.7 0 00.3.9.7.7 0 00.7.3 1.5 1.5 0 001-.3 2.8 2.8 0 00.7-1 10.8 10.8 0 00.5-1.4 17.2 17.2 0 00.4-1.7c.1-.6.3-1 .7-1a.4.4 0 01.4.2 1.5 1.5 0 010 .7 1.3 1.3 0 010 .4 8 8 0 01-.2 1.6 11.4 11.4 0 01-.9 2 6.9 6.9 0 01-1.2 1.9 2.4 2.4 0 01-1.8.7 3.3 3.3 0 01-2-.5 3.5 3.5 0 01-1.1-1.5 7.7 7.7 0 01-.6-2.1 17.2 17.2 0 01-.2-2.6v-.2z"/></g></g></svg>