<svg xmlns="http://www.w3.org/2000/svg" viewBox="0 0 89.28 48.25"><path d="M39.36,31.4a2.07,2.07,0,1,0,2.06,2.08v0a2.07,2.07,0,0,0-2.06-2.06" transform="translate(-0.36 -0.38)" style="fill:#fff"/><path d="M83,31.4a2.07,2.07,0,1,0,2.06,2.08v0A2.06,2.06,0,0,0,83,31.4" transform="translate(-0.36 -0.38)" style="fill:#fff"/><path d="M59.92,39.77H58.09C53.92,39.77,50,37,50,31.87,50,27.34,53.21,24,58.09,24h1.85V23H58.09c-6.45,0-9.18,4.81-9.18,8.86,0,5.47,4.07,8.86,9.18,8.86h1.83Z" transform="translate(-0.36 -0.38)" style="fill:#fff"/><path d="M72.84,39.77H71c-4.18,0-8.08-2.81-8.08-7.9C62.94,27.34,66.13,24,71,24h1.84V23H71c-6.46,0-9.19,4.81-9.19,8.86,0,5.47,4.07,8.86,9.19,8.86h1.82Z" transform="translate(-0.36 -0.38)" style="fill:#fff"/><path d="M33.28,40.73h1.08V30.15c0-2.3.1-4.43,2.33-5.77a5.87,5.87,0,0,1,5.41,0c2.23,1.34,2.33,3.47,2.33,5.77V40.73h1.06V30.15c0-2.1,0-4.91-2.78-6.58a7.19,7.19,0,0,0-6.63,0c-2.81,1.67-2.78,4.48-2.78,6.58Z" transform="translate(-0.36 -0.38)" style="fill:#fff"/><path d="M76.94,40.73H78V30.15c0-2.3.1-4.43,2.33-5.77a5.87,5.87,0,0,1,5.41,0c2.23,1.34,2.33,3.47,2.33,5.77V40.73h1.06V30.15c0-2.1,0-4.91-2.78-6.58a7.19,7.19,0,0,0-6.63,0c-2.81,1.67-2.79,4.48-2.79,6.58Z" transform="translate(-0.36 -0.38)" style="fill:#fff"/><path d="M17.36,31.62a2.25,2.25,0,0,1,1.78,1c.44.67.79,1.39,1.23,2-1.9,2.79-4.86,1.49-7.57.3a21.92,21.92,0,0,0-2.84-1c-2-.52-3.57-.17-4.31,2.67a.42.42,0,0,0,.28.53.41.41,0,0,0,.52-.27v0C7,34.58,8.25,34.3,9.74,34.69a21.44,21.44,0,0,1,2.71,1c3,1.31,6.25,2.73,8.48-.39.73.66,1.7.74,3.39-.55h0a11.56,11.56,0,0,0,3.74-5.88,14.89,14.89,0,0,0,.65-4.45,7.31,7.31,0,0,0,4.65,3.12.42.42,0,0,0,.5-.33.43.43,0,0,0-.33-.5,6.63,6.63,0,0,1-4.45-3.19l6.37-4.12c.37-.23.48-.23.49-.68L35.48,8.64c.05-.41-.22-.6-.51-.42l-2.83,1.85V4.19a.43.43,0,0,0-.8-.24l-4.52,7.92A6.3,6.3,0,0,0,25.24,9.3L27,3.52l1.14,1.11h0a.44.44,0,0,0,.61,0,.64.64,0,0,0,.08-.14l.61-1.67a.43.43,0,0,0-.25-.55.51.51,0,0,0-.17,0l-1.64.18L27.83,1a.39.39,0,0,0-.16-.54l-.06,0a.43.43,0,0,0-.55.25L26.64,2l-1.11-1a.44.44,0,0,0-.61,0,.6.6,0,0,0-.09.15l-.61,1.68a.43.43,0,0,0,.25.54.37.37,0,0,0,.18,0h0l1.59-.12L24.55,8.74A3.76,3.76,0,0,0,21.66,8l-.13-.16-3-4.17A.42.42,0,0,0,18,3.36a.42.42,0,0,0-.29.39l.47,5.79L13.74,6.89C13.48,6.66,13,6.61,13,7v7.84l-4.16.24.66-1.45h0a.43.43,0,0,0-.22-.56l-.16,0H7.3a.43.43,0,0,0-.44.41.39.39,0,0,0,0,.18l.68,1.5-1.44.07a.42.42,0,0,0-.44.4h0a.44.44,0,0,0,.43.43L7.53,16,6.89,17.4a.44.44,0,0,0,.23.57.47.47,0,0,0,.17,0H9.08a.43.43,0,0,0,.42-.44.94.94,0,0,0,0-.16h0L8.8,15.94,13,15.7v3.63c0,.45.23.56.58.73l7.25,3.76v.23l-.06.22-.44.75a9,9,0,0,1-1.51,1.38c-1.43,1.17-2.93,2.4-2.53,4.73a.51.51,0,0,0,.19.35c-1.11,1.58-3.18,1.07-5.59.47C7.56,31.14,3.71,30.18.48,33.53a.43.43,0,0,0,0,.6.42.42,0,0,0,.59,0c2.9-3,6.5-2.11,9.57-1.35s5.43,1.34,6.71-1.15m1.08-17.06-4.64.26v-7l4.64,2.72a5.23,5.23,0,0,0,0,4.07m-4.64,1.1,5-.29A5.07,5.07,0,0,0,21,17.72v2.16A27.73,27.73,0,0,1,20.92,23l-7.1-3.68Zm8,7.06c.31-1.74,2.29-2.31,4.56-3l.82-.24a16.58,16.58,0,0,1,.07,9.16,10.69,10.69,0,0,1-3.44,5.45h0c-1.46,1.11-2.12.9-2.6.27-1.19-1.57-1.58-3.81-4.15-3.61-.19-1.73,1.06-2.75,2.25-3.73a5.35,5.35,0,0,0,2.24-2.82c.13-.56.16-1,.25-1.51m6.14-3.44c2.82-.91,4.57-1.45,5.51-5.26a.42.42,0,0,0-.31-.51h0a.43.43,0,0,0-.51.31c-.83,3.38-2.34,3.81-5,4.66A11.66,11.66,0,0,0,26.42,16a4.82,4.82,0,0,0,.53-1.7L34.71,9.4l.41,9.24-6.41,4.17h-.08v-.27A20.85,20.85,0,0,0,28,19.32v-.06m-1-.57c-1.68.5-3.78.87-5.08,2.11V17.93A3.8,3.8,0,0,0,26,16.72a12.51,12.51,0,0,1,.93,2m-8-8.91-.38-5,2.34,3.4a4.21,4.21,0,0,0-2,1.63m1.23,5.95c2.64-1.87.26-3.52,3-5.37,1-.58,2.59,0,3,2.27.33,1.73-.3,3.81-2.06,4.46h0a3.62,3.62,0,0,1-4-1.37m7-2.48v-.14L31.36,5.4v5.13Z" transform="translate(-0.36 -0.38)" style="fill:#fff"/><path d="M33.12,47.66a4.34,4.34,0,0,0,.88.06,2.2,2.2,0,0,0,1.42-.32,1,1,0,0,0,.37-.77.88.88,0,0,0-.72-.88h0a.81.81,0,0,0,.6-.76.77.77,0,0,0-.43-.71,2.08,2.08,0,0,0-1.07-.21,7.42,7.42,0,0,0-1.05.08Zm.8-3h.35c.37,0,.58.14.58.42s-.22.44-.66.44h-.27Zm0,1.42h.28c.41,0,.74.15.74.51s-.33.52-.7.52h-.32Zm4.29-2v3.61h.92l.74-1.3a9.53,9.53,0,0,0,.61-1.29h0a13,13,0,0,0-.06,1.52v1.07h.75V44.07h-.81l-.77,1.42c-.22.39-.46.86-.65,1.28h0v-2.7Zm6,0v1a4.8,4.8,0,0,1-.13,1.2,3.25,3.25,0,0,1-.35.81h-.3v1.53h.62v-.91h2.12v.91h.62V47.09h-.36v-3Zm.76.66h.79V47h-1.2a3.23,3.23,0,0,0,.3-.62A4.25,4.25,0,0,0,45,45.22Zm6.16,2,.28.93h1l-1.13-3.61H50.14l-1.09,3.61h.84l.25-.93Zm-.92-.61.22-.76.16-.7h0c.06.22.12.48.18.7l.23.76Zm4.41,1.52a4.44,4.44,0,0,0,.89.06A2.23,2.23,0,0,0,57,47.4a1,1,0,0,0,.37-.77.88.88,0,0,0-.72-.88h0a.81.81,0,0,0,.6-.76.77.77,0,0,0-.43-.71,2.08,2.08,0,0,0-1.07-.21,7.56,7.56,0,0,0-1.06.08Zm.81-3h.35c.37,0,.58.14.58.42s-.23.44-.66.44h-.27Zm0,1.42h.28c.41,0,.73.15.73.51s-.32.52-.69.52h-.32Zm4.29-2v3.61h.82V46.17h1.34v1.51h.81V44.07h-.81v1.39H60.59V44.07Zm5.54,0v3.61h.93l.73-1.3a9.58,9.58,0,0,0,.62-1.29h0v2.59h.75V44.07h-.83l-.78,1.42c-.21.39-.45.86-.64,1.28h0v-2.7Zm5.56,0v3.61h2.56v.91H74V47.06h-.37v-3h-.81V47H71.69V44.07Zm6.27,3.61h.82V44.76h1v-.69H76.17v.69h1Zm4.09,0a4.44,4.44,0,0,0,.89.06,2.25,2.25,0,0,0,1.47-.34,1,1,0,0,0,.37-.77.9.9,0,0,0-.72-.88h0a.81.81,0,0,0,.6-.76.77.77,0,0,0-.43-.71,2.08,2.08,0,0,0-1.07-.21,7.56,7.56,0,0,0-1.06.08Zm.81-3h.35c.37,0,.58.14.58.42s-.23.44-.66.44H82Zm0,1.42h.37c.41,0,.73.15.73.51s-.32.52-.69.52h-.32ZM87.87,44a1.75,1.75,0,0,0-1.71,1.79v.08a1.7,1.7,0,0,0,1.53,1.84h.17a1.71,1.71,0,0,0,1.78-1.63,2.44,2.44,0,0,0,0-.27A1.68,1.68,0,0,0,88.09,44h-.17m0,.64c.56,0,.87.56.87,1.21s-.32,1.23-.87,1.23-.88-.5-.88-1.21.32-1.23.88-1.23" transform="translate(-0.36 -0.38)" style="fill:#fff"/></svg>